<svg width="40" height="40" viewBox="0 0 40 40" fill="none" xmlns="http://www.w3.org/2000/svg">
<path d="M33.3333 15H20C18.159 15 16.6666 16.4924 16.6666 18.3333V31.6667C16.6666 33.5076 18.159 35 20 35H33.3333C35.1742 35 36.6666 33.5076 36.6666 31.6667V18.3333C36.6666 16.4924 35.1742 15 33.3333 15Z" stroke="#151515" stroke-width="2.5" stroke-linecap="round" stroke-linejoin="round"/>
<path d="M16.1997 31.6667H14.5331" stroke="#151515" stroke-width="2.5" stroke-linecap="round" stroke-linejoin="round"/>
<path d="M7.88335 31.6667C7.0794 31.5572 6.34298 31.1582 5.81217 30.5445C5.28136 29.9309 4.99259 29.1447 5.00002 28.3333V8.33333C5.00002 7.44928 5.35121 6.60143 5.97633 5.97631C6.60145 5.35119 7.4493 5 8.33335 5H28.3334C29.2174 5 30.0653 5.35119 30.6904 5.97631C31.3155 6.60143 31.6667 7.44928 31.6667 8.33333V9.68333" stroke="#151515" stroke-width="2.5" stroke-linecap="round" stroke-linejoin="round" stroke-dasharray="2 3.99"/>
<path d="M31.6666 13.0166V14.6833" stroke="#151515" stroke-width="2.5" stroke-linecap="round" stroke-linejoin="round"/>
</svg>
