<svg width="40" height="40" viewBox="0 0 40 40" fill="none" xmlns="http://www.w3.org/2000/svg">
<path d="M6.98372 23.3C8.82467 23.3 10.3171 21.8076 10.3171 19.9666C10.3171 18.1257 8.82467 16.6333 6.98372 16.6333C5.14277 16.6333 3.65039 18.1257 3.65039 19.9666C3.65039 21.8076 5.14277 23.3 6.98372 23.3Z" stroke="#151515" stroke-width="2.5" stroke-linecap="round" stroke-linejoin="bevel"/>
<path d="M20.0001 23.3666C21.841 23.3666 23.3334 21.8742 23.3334 20.0333C23.3334 18.1923 21.841 16.7 20.0001 16.7C18.1591 16.7 16.6667 18.1923 16.6667 20.0333C16.6667 21.8742 18.1591 23.3666 20.0001 23.3666Z" stroke="#151515" stroke-width="2.5" stroke-linecap="round" stroke-linejoin="bevel"/>
<path d="M33.0172 23.3C34.8581 23.3 36.3505 21.8076 36.3505 19.9666C36.3505 18.1257 34.8581 16.6333 33.0172 16.6333C31.1762 16.6333 29.6838 18.1257 29.6838 19.9666C29.6838 21.8076 31.1762 23.3 33.0172 23.3Z" stroke="#151515" stroke-width="2.5" stroke-linecap="round" stroke-linejoin="bevel"/>
</svg>
