<svg width="40" height="40" viewBox="0 0 40 40" fill="none" xmlns="http://www.w3.org/2000/svg">
<path d="M26.6667 21.8833H13.3334" stroke="#151515" stroke-width="2.5" stroke-linecap="round" stroke-linejoin="bevel"/>
<path d="M20 28.5499V15.2166" stroke="#151515" stroke-width="2.5" stroke-linecap="round" stroke-linejoin="bevel"/>
<path fill-rule="evenodd" clip-rule="evenodd" d="M24.7666 3.33325H9.99996C9.1159 3.33325 8.26806 3.68444 7.64294 4.30956C7.01782 4.93468 6.66663 5.78253 6.66663 6.66659V33.3333C6.66663 34.2173 7.01782 35.0652 7.64294 35.6903C8.26806 36.3154 9.1159 36.6666 9.99996 36.6666H30C30.884 36.6666 31.7319 36.3154 32.357 35.6903C32.9821 35.0652 33.3333 34.2173 33.3333 33.3333V14.8666C33.3393 14.5257 33.234 14.1922 33.0333 13.9166L26.1166 4.04992C25.9651 3.83144 25.7635 3.65238 25.5286 3.52771C25.2938 3.40304 25.0325 3.33636 24.7666 3.33325V3.33325Z" stroke="#151515" stroke-width="2.5" stroke-linecap="round" stroke-linejoin="bevel"/>
</svg>
