<svg width="40" height="40" viewBox="0 0 40 40" fill="none" xmlns="http://www.w3.org/2000/svg">
<path fill-rule="evenodd" clip-rule="evenodd" d="M28.5999 37.3502L17.6333 29.4502C17.5771 29.4108 17.5102 29.3896 17.4416 29.3896C17.373 29.3896 17.3061 29.4108 17.2499 29.4502L6.2666 37.3502C6.21632 37.3793 6.15932 37.3947 6.10126 37.3949C6.04319 37.3951 5.98607 37.3802 5.93555 37.3516C5.88504 37.3229 5.84287 37.2816 5.81324 37.2317C5.7836 37.1817 5.76753 37.1249 5.7666 37.0669V10.9669C5.7666 10.0828 6.11779 9.23498 6.74291 8.60986C7.36803 7.98473 8.21588 7.63354 9.09994 7.63354H25.7666C26.6507 7.63354 27.4985 7.98473 28.1236 8.60986C28.7487 9.23498 29.0999 10.0828 29.0999 10.9669V37.0669C29.099 37.1249 29.0829 37.1817 29.0533 37.2317C29.0237 37.2816 28.9815 37.3229 28.931 37.3516C28.8805 37.3802 28.8233 37.3951 28.7653 37.3949C28.7072 37.3947 28.6502 37.3793 28.5999 37.3502V37.3502Z" stroke="#151515" stroke-width="2.5" stroke-linecap="round" stroke-linejoin="bevel"/>
<path d="M9.54956 2.6001H30.8996C31.7836 2.6001 32.6315 2.95129 33.2566 3.57641C33.8817 4.20153 34.2329 5.04938 34.2329 5.93343V33.2334" stroke="#151515" stroke-width="2.5" stroke-linecap="round" stroke-linejoin="round"/>
</svg>
