<svg width="40" height="40" viewBox="0 0 40 40" fill="none" xmlns="http://www.w3.org/2000/svg">
<path fill-rule="evenodd" clip-rule="evenodd" d="M31.5498 35L20.5498 27.05C20.5005 27.017 20.4425 26.9994 20.3832 26.9994C20.3238 26.9994 20.2658 27.017 20.2165 27.05L9.21651 35C9.165 35.0298 9.10645 35.0452 9.04695 35.0448C8.98745 35.0443 8.92917 35.0279 8.87814 34.9973C8.82712 34.9667 8.78522 34.9229 8.7568 34.8707C8.72838 34.8184 8.71446 34.7595 8.7165 34.7V8.58333C8.7165 7.69928 9.06769 6.85143 9.69282 6.22631C10.3179 5.60119 11.1658 5.25 12.0498 5.25H28.7165C29.6006 5.25 30.4484 5.60119 31.0735 6.22631C31.6986 6.85143 32.0498 7.69928 32.0498 8.58333V34.6667C32.0586 34.7289 32.0496 34.7923 32.024 34.8496C31.9983 34.9069 31.9569 34.9558 31.9047 34.9906C31.8524 35.0254 31.7914 35.0448 31.7286 35.0465C31.6658 35.0481 31.6039 35.032 31.5498 35V35Z" stroke="#151515" stroke-width="2.5" stroke-linecap="round" stroke-linejoin="round"/>
</svg>
