<svg width="40" height="40" viewBox="0 0 40 40" fill="none" xmlns="http://www.w3.org/2000/svg">
<path d="M25 28.6665L15 18.6665" stroke="#151515" stroke-width="2.5" stroke-linecap="round" stroke-linejoin="bevel"/>
<path d="M25 18.6665L15 28.6665" stroke="#151515" stroke-width="2.5" stroke-linecap="round" stroke-linejoin="bevel"/>
<path d="M33.3333 3.0166H6.66667C5.74619 3.0166 5 3.76279 5 4.68327V8.0166C5 8.93708 5.74619 9.68327 6.66667 9.68327H33.3333C34.2538 9.68327 35 8.93708 35 8.0166V4.68327C35 3.76279 34.2538 3.0166 33.3333 3.0166Z" stroke="#151515" stroke-width="2.5" stroke-linecap="round" stroke-linejoin="bevel"/>
<path d="M31.6666 10.3164V33.6497C31.6666 34.5338 31.3154 35.3816 30.6903 36.0068C30.0652 36.6319 29.2173 36.9831 28.3333 36.9831H11.6666C10.7825 36.9831 9.93468 36.6319 9.30956 36.0068C8.68444 35.3816 8.33325 34.5338 8.33325 33.6497V10.3164" stroke="#151515" stroke-width="2.5" stroke-linecap="round" stroke-linejoin="bevel"/>
</svg>
