<svg width="40" height="40" viewBox="0 0 40 40" fill="none" xmlns="http://www.w3.org/2000/svg">
<path fill-rule="evenodd" clip-rule="evenodd" d="M17.3833 5.65008L17.5333 5.28342C17.8019 4.66547 18.2514 4.14343 18.8227 3.78612C19.3939 3.4288 20.06 3.253 20.7332 3.28187C21.4064 3.31075 22.055 3.54295 22.5935 3.94787C23.1321 4.35279 23.5353 4.91141 23.75 5.55008L23.8666 5.93342C24.0066 6.3748 24.2369 6.78219 24.543 7.12962C24.8491 7.47706 25.2242 7.75691 25.6444 7.95134C26.0646 8.14578 26.5208 8.25053 26.9837 8.25892C27.4467 8.26731 27.9063 8.17916 28.3333 8.00008L28.6833 7.85008C29.3105 7.60033 29.9988 7.54692 30.657 7.69692C31.3153 7.84691 31.9124 8.19324 32.3695 8.69008C32.8266 9.18692 33.1221 9.81084 33.2168 10.4793C33.3115 11.1477 33.201 11.8291 32.9 12.4334L32.7166 12.7834C32.5059 13.1917 32.3819 13.6391 32.3523 14.0976C32.3228 14.556 32.3883 15.0157 32.5448 15.4476C32.7013 15.8796 32.9454 16.2745 33.2618 16.6076C33.5782 16.9407 33.96 17.2049 34.3833 17.3834L34.75 17.5334C35.3679 17.802 35.8899 18.2515 36.2473 18.8228C36.6046 19.394 36.7804 20.0602 36.7515 20.7333C36.7226 21.4065 36.4904 22.0551 36.0855 22.5937C35.6806 23.1322 35.122 23.5354 34.4833 23.7501L34.1 23.8667C33.6556 24.0031 33.2447 24.2309 32.8936 24.5354C32.5425 24.84 32.2589 25.2146 32.0612 25.6352C31.8634 26.0558 31.7558 26.5132 31.7453 26.9778C31.7347 27.4425 31.8215 27.9043 32 28.3334L32.15 28.6834C32.3997 29.3106 32.4531 29.9989 32.3031 30.6571C32.1531 31.3154 31.8068 31.9126 31.31 32.3697C30.8131 32.8267 30.1892 33.1222 29.5208 33.2169C28.8523 33.3116 28.1709 33.2011 27.5666 32.9001L27.2166 32.7167C26.8084 32.5061 26.361 32.382 25.9025 32.3525C25.444 32.3229 24.9844 32.3884 24.5524 32.5449C24.1205 32.7014 23.7256 32.9455 23.3924 33.2619C23.0593 33.5783 22.7952 33.9601 22.6166 34.3834L22.4666 34.7501C22.198 35.368 21.7485 35.8901 21.1773 36.2474C20.606 36.6047 19.9399 36.7805 19.2667 36.7516C18.5936 36.7228 17.9449 36.4905 17.4064 36.0856C16.8678 35.6807 16.4646 35.1221 16.25 34.4834L16.1333 34.1001C15.997 33.6557 15.7692 33.2448 15.4646 32.8937C15.1601 32.5426 14.7855 32.2591 14.3648 32.0613C13.9442 31.8635 13.4869 31.7559 13.0222 31.7454C12.5575 31.7349 12.0958 31.8216 11.6666 32.0001L11.3166 32.1501C10.6894 32.3998 10.0011 32.4532 9.34291 32.3033C8.68467 32.1533 8.08749 31.8069 7.6304 31.3101C7.17331 30.8132 6.87786 30.1893 6.78314 29.5209C6.68842 28.8525 6.79891 28.171 7.09997 27.5668L7.2833 27.2167C7.494 26.8085 7.61802 26.3611 7.6476 25.9026C7.67717 25.4441 7.61165 24.9845 7.45514 24.5526C7.29864 24.1206 7.05454 23.7257 6.73815 23.3926C6.42177 23.0594 6.03994 22.7953 5.61663 22.6167L5.24997 22.4667C4.63202 22.1982 4.10998 21.7486 3.75267 21.1774C3.39536 20.6061 3.21955 19.94 3.24842 19.2668C3.2773 18.5937 3.5095 17.9451 3.91442 17.4065C4.31934 16.868 4.87796 16.4648 5.51663 16.2501L5.89997 16.1334C6.34431 15.9971 6.75524 15.7693 7.10635 15.4648C7.45746 15.1602 7.74099 14.7856 7.93875 14.365C8.13651 13.9443 8.24411 13.487 8.25465 13.0223C8.2652 12.5577 8.17844 12.0959 7.99997 11.6667L7.84997 11.3167C7.61049 10.6912 7.565 10.0081 7.71945 9.35632C7.87389 8.70457 8.2211 8.11447 8.71582 7.66293C9.21053 7.21139 9.8298 6.91936 10.4929 6.82491C11.156 6.73046 11.8322 6.83797 12.4333 7.13342L12.7833 7.31675C13.1916 7.52744 13.639 7.65147 14.0974 7.68104C14.5559 7.71062 15.0155 7.64509 15.4475 7.48859C15.8794 7.33209 16.2744 7.08799 16.6075 6.7716C16.9406 6.45522 17.2047 6.07339 17.3833 5.65008V5.65008Z" stroke="#151515" stroke-width="2.5" stroke-linecap="round" stroke-linejoin="bevel"/>
<path d="M19.9998 26.5167C23.5989 26.5167 26.5165 23.5991 26.5165 20.0001C26.5165 16.401 23.5989 13.4834 19.9998 13.4834C16.4008 13.4834 13.4832 16.401 13.4832 20.0001C13.4832 23.5991 16.4008 26.5167 19.9998 26.5167Z" stroke="#151515" stroke-width="2.5" stroke-linecap="round" stroke-linejoin="bevel"/>
</svg>
