<svg width="40" height="40" viewBox="0 0 40 40" fill="none" xmlns="http://www.w3.org/2000/svg">
<path d="M18.5165 4.33325L2.68317 35.9999C2.55532 36.2536 2.49445 36.5358 2.50634 36.8197C2.51823 37.1035 2.60249 37.3796 2.75111 37.6218C2.89973 37.8639 3.10778 38.064 3.35551 38.2031C3.60323 38.3422 3.8824 38.4157 4.16651 38.4166H35.8332C36.1173 38.4157 36.3965 38.3422 36.6442 38.2031C36.8919 38.064 37.0999 37.8639 37.2486 37.6218C37.3972 37.3796 37.4814 37.1035 37.4933 36.8197C37.5052 36.5358 37.4444 36.2536 37.3165 35.9999L21.4832 4.33325C21.3433 4.06024 21.1308 3.83114 20.8691 3.67115C20.6074 3.51117 20.3066 3.42651 19.9998 3.42651C19.6931 3.42651 19.3923 3.51117 19.1306 3.67115C18.8689 3.83114 18.6564 4.06024 18.5165 4.33325Z" stroke="#151515" stroke-width="2.5" stroke-linecap="round" stroke-linejoin="round"/>
<path d="M21.6666 13.9167C21.6666 12.9962 20.9204 12.25 19.9999 12.25C19.0794 12.25 18.3333 12.9962 18.3333 13.9167V25.5833C18.3333 26.5038 19.0794 27.25 19.9999 27.25C20.9204 27.25 21.6666 26.5038 21.6666 25.5833V13.9167Z" stroke="#151515" stroke-width="2.5" stroke-linecap="round" stroke-linejoin="bevel"/>
<path d="M20.0165 30.55H19.9999C18.7756 30.55 17.7832 31.5425 17.7832 32.7667V32.7834C17.7832 34.0076 18.7756 35 19.9999 35H20.0165C21.2408 35 22.2332 34.0076 22.2332 32.7834V32.7667C22.2332 31.5425 21.2408 30.55 20.0165 30.55Z" stroke="#151515" stroke-width="2.5" stroke-linecap="round" stroke-linejoin="bevel"/>
</svg>
