<svg width="40" height="40" viewBox="0 0 40 40" fill="none" xmlns="http://www.w3.org/2000/svg">
<path d="M9.4833 26.5667H23.3333C23.7428 26.5696 24.139 26.4218 24.4464 26.1512C24.7538 25.8807 24.9508 25.5065 25 25.1L26.2666 14.75C26.2951 14.515 26.2731 14.2765 26.2021 14.0506C26.1312 13.8247 26.0129 13.6166 25.8552 13.4399C25.6976 13.2633 25.504 13.1223 25.2876 13.0264C25.0711 12.9304 24.8367 12.8816 24.6 12.8833H9.4833C7.66657 12.8833 5.92424 13.605 4.63962 14.8897C3.35499 16.1743 2.6333 17.9166 2.6333 19.7333V19.7333C2.63771 21.5472 3.36136 23.2852 4.6455 24.5663C5.92965 25.8473 7.66945 26.5667 9.4833 26.5667Z" stroke="#151515" stroke-width="2.5" stroke-linecap="round" stroke-linejoin="round"/>
<path d="M26.2664 14.7499H34.7164C35.1158 14.7448 35.5039 14.8833 35.8098 15.1402C36.1157 15.3972 36.3191 15.7555 36.383 16.1499L37.483 22.6666C37.5247 22.9079 37.5126 23.1555 37.4478 23.3916C37.3829 23.6278 37.2667 23.8468 37.1076 24.0329C36.9485 24.2191 36.7503 24.3679 36.5271 24.4688C36.3039 24.5697 36.0612 24.6201 35.8164 24.6166H26.2664" stroke="#151515" stroke-width="2.5" stroke-linecap="round" stroke-linejoin="round"/>
<path d="M9.86634 21.8999C11.1274 21.8999 12.1497 20.8776 12.1497 19.6166C12.1497 18.3555 11.1274 17.3333 9.86634 17.3333C8.60529 17.3333 7.58301 18.3555 7.58301 19.6166C7.58301 20.8776 8.60529 21.8999 9.86634 21.8999Z" stroke="#151515" stroke-width="2.5" stroke-linecap="round" stroke-linejoin="round"/>
</svg>
