<svg width="40" height="40" viewBox="0 0 40 40" fill="none" xmlns="http://www.w3.org/2000/svg">
<path d="M33.1502 5.41675H6.85018C5.96612 5.41675 5.11828 5.76794 4.49316 6.39306C3.86804 7.01818 3.51685 7.86603 3.51685 8.75008V23.8501C3.51685 24.2878 3.60307 24.7213 3.77058 25.1257C3.9381 25.5301 4.18363 25.8976 4.49316 26.2071C4.80269 26.5166 5.17015 26.7622 5.57457 26.9297C5.97899 27.0972 6.41244 27.1834 6.85018 27.1834H9.58351L13.4335 33.8501C13.557 34.0685 13.7362 34.2502 13.9529 34.3767C14.1696 34.5031 14.416 34.5697 14.6668 34.5697C14.9177 34.5697 15.1641 34.5031 15.3808 34.3767C15.5975 34.2502 15.7767 34.0685 15.9002 33.8501L19.7668 27.1834H33.1002C33.9842 27.1834 34.8321 26.8322 35.4572 26.2071C36.0823 25.582 36.4335 24.7341 36.4335 23.8501V8.75008C36.4336 7.87462 36.0893 7.03427 35.4749 6.41056C34.8606 5.78686 34.0255 5.42988 33.1502 5.41675Z" stroke="#151515" stroke-width="2.5" stroke-linecap="round" stroke-linejoin="round"/>
<path d="M8.35034 13.1001H18.3503" stroke="#151515" stroke-width="2.5" stroke-linecap="round" stroke-linejoin="round"/>
<path d="M8.35034 19.7668H30.017" stroke="#151515" stroke-width="2.5" stroke-linecap="round" stroke-linejoin="round"/>
</svg>
