<svg width="40" height="40" viewBox="0 0 40 40" fill="none" xmlns="http://www.w3.org/2000/svg">
<path d="M29.8336 8.05005H9.83358C7.99263 8.05005 6.50024 9.54243 6.50024 11.3834V14.7167C6.50024 16.5577 7.99263 18.05 9.83358 18.05H29.8336C31.6745 18.05 33.1669 16.5577 33.1669 14.7167V11.3834C33.1669 9.54243 31.6745 8.05005 29.8336 8.05005Z" stroke="#151515" stroke-width="2.5" stroke-linecap="round" stroke-linejoin="round"/>
<path d="M23.1669 18.05V34.55C23.0867 35.3556 22.6913 36.0967 22.0669 36.6119C21.4425 37.1271 20.6397 37.3744 19.8336 37.3V37.3C19.0284 37.37 18.228 37.121 17.6046 36.6067C16.9811 36.0924 16.5846 35.3538 16.5002 34.55V18.05" stroke="#151515" stroke-width="2.5" stroke-linecap="round" stroke-linejoin="round"/>
<path d="M17.4834 7.30006V6.08339C17.492 5.7835 17.5597 5.48825 17.6825 5.21451C17.8053 4.94078 17.9808 4.69392 18.199 4.48806C18.4173 4.2822 18.674 4.12137 18.9544 4.01476C19.2348 3.90814 19.5335 3.85784 19.8334 3.86672V3.86672C20.1333 3.85784 20.432 3.90814 20.7124 4.01476C20.9928 4.12137 21.2495 4.2822 21.4678 4.48806C21.686 4.69392 21.8615 4.94078 21.9843 5.21451C22.1071 5.48825 22.1748 5.7835 22.1834 6.08339V7.30006" stroke="#151515" stroke-width="2.5" stroke-linecap="round" stroke-linejoin="round"/>
</svg>
