<svg width="40" height="40" viewBox="0 0 40 40" fill="none" xmlns="http://www.w3.org/2000/svg">
<path d="M6.25009 29.0167L10.2334 33C10.5439 33.3175 10.9146 33.5697 11.3239 33.742C11.7332 33.9142 12.1727 34.0029 12.6168 34.0029C13.0608 34.0029 13.5004 33.9142 13.9096 33.742C14.3189 33.5697 14.6897 33.3175 15.0001 33L17.2668 30.7333C17.5767 30.4237 17.8225 30.0561 17.9903 29.6515C18.158 29.2468 18.2444 28.813 18.2444 28.375C18.2444 27.9369 18.158 27.5032 17.9903 27.0985C17.8225 26.6939 17.5767 26.3262 17.2668 26.0167L15.7834 24.5167C18.0976 20.6548 21.3257 17.421 25.1834 15.1V15.1L26.6668 16.6C26.9763 16.9099 27.344 17.1558 27.7486 17.3235C28.1533 17.4913 28.587 17.5776 29.0251 17.5776C29.4631 17.5776 29.8969 17.4913 30.3016 17.3235C30.7062 17.1558 31.0738 16.9099 31.3834 16.6L33.6168 14.3833C33.9267 14.0737 34.1725 13.7061 34.3403 13.3015C34.508 12.8968 34.5944 12.463 34.5944 12.025C34.5944 11.5869 34.508 11.1532 34.3403 10.7485C34.1725 10.3439 33.9267 9.97623 33.6168 9.66666L29.6334 5.64999C29.3622 5.37699 29.0049 5.20626 28.6221 5.16676C28.2393 5.12727 27.8547 5.22145 27.5334 5.43332V5.43332C19.0109 11.0896 11.7064 18.3941 6.05009 26.9167V26.9167C5.83611 27.2361 5.73913 27.6196 5.77558 28.0023C5.81203 28.385 5.97967 28.7434 6.25009 29.0167V29.0167Z" stroke="#151515" stroke-width="2.5" stroke-linecap="round" stroke-linejoin="round"/>
</svg>
