<svg width="40" height="40" viewBox="0 0 40 40" fill="none" xmlns="http://www.w3.org/2000/svg">
<path d="M21.2666 2.66675C20.8499 2.66675 20.4166 2.66675 19.9999 2.66675C19.5833 2.66675 19.1499 2.66675 18.7333 2.66675C10.3999 3.48341 5.93327 12.9001 9.88327 20.2334L18.7166 36.6667C18.8396 36.9006 19.0242 37.0964 19.2503 37.233C19.4765 37.3696 19.7357 37.4418 19.9999 37.4418C20.2642 37.4418 20.5234 37.3696 20.7495 37.233C20.9757 37.0964 21.1603 36.9006 21.2833 36.6667L30.1166 20.2834C34.0666 12.9001 29.5499 3.48341 21.2666 2.66675Z" stroke="#151515" stroke-width="2.5" stroke-linecap="round" stroke-linejoin="bevel"/>
<path d="M24.1666 14.1667C24.1666 11.8655 22.3011 10 19.9999 10C17.6987 10 15.8333 11.8655 15.8333 14.1667C15.8333 16.4679 17.6987 18.3333 19.9999 18.3333C22.3011 18.3333 24.1666 16.4679 24.1666 14.1667Z" stroke="#151515" stroke-width="2.5" stroke-linecap="round" stroke-linejoin="bevel"/>
</svg>
