<svg width="40" height="40" viewBox="0 0 40 40" fill="none" xmlns="http://www.w3.org/2000/svg">
<path d="M36.6666 20.45V27.7333C36.6666 28.6174 36.3154 29.4653 35.6903 30.0904C35.0652 30.7155 34.2173 31.0667 33.3333 31.0667H6.66659C5.78253 31.0667 4.93468 30.7155 4.30956 30.0904C3.68444 29.4653 3.33325 28.6174 3.33325 27.7333V12.2667C3.33325 11.3826 3.68444 10.5348 4.30956 9.90966C4.93468 9.28454 5.78253 8.93335 6.66659 8.93335H17.9333" stroke="#151515" stroke-width="2.5" stroke-linecap="round" stroke-linejoin="bevel"/>
<path d="M32.1664 7.08333C32.0114 6.92712 31.8271 6.80312 31.624 6.71851C31.4209 6.6339 31.2031 6.59033 30.983 6.59033C30.763 6.59033 30.5452 6.6339 30.3421 6.71851C30.139 6.80312 29.9547 6.92712 29.7997 7.08333L19.7997 17.0833L19.633 22.0833C19.6304 22.1336 19.6387 22.1839 19.6572 22.2307C19.6758 22.2775 19.7043 22.3197 19.7406 22.3546C19.777 22.3894 19.8205 22.4159 19.8681 22.4324C19.9157 22.4489 19.9663 22.4549 20.0164 22.45L25.0164 22.2833L35.0164 12.2833C35.3048 11.9721 35.4636 11.5626 35.4605 11.1384C35.4574 10.7141 35.2926 10.307 34.9997 10L32.1664 7.08333Z" stroke="#151515" stroke-width="2.5" stroke-linecap="round" stroke-linejoin="round"/>
</svg>
