<svg width="40" height="40" viewBox="0 0 40 40" fill="none" xmlns="http://www.w3.org/2000/svg">
<path d="M28.7001 33.5999H11.6668C11.127 33.6 10.5952 33.469 10.1172 33.2181C9.63927 32.9672 9.22937 32.6041 8.92279 32.1598C8.61621 31.7155 8.42211 31.2033 8.3572 30.6675C8.29228 30.1316 8.35849 29.5879 8.55012 29.0833L11.7668 20.5166C12.0005 19.8808 12.4223 19.3313 12.9761 18.9412C13.5299 18.5512 14.1894 18.3391 14.8668 18.3333H25.4835C26.1645 18.3311 26.8299 18.5375 27.3901 18.9249C27.9503 19.3123 28.3784 19.8619 28.6168 20.4999L31.8168 29.0666C32.0119 29.5721 32.0808 30.1176 32.0175 30.6557C31.9542 31.1939 31.7607 31.7085 31.4538 32.155C31.1468 32.6016 30.7356 32.9665 30.2558 33.2183C29.7759 33.47 29.242 33.601 28.7001 33.5999V33.5999Z" stroke="#151515" stroke-width="2.5" stroke-linecap="round" stroke-linejoin="round"/>
<path d="M20.1834 29.3168C22.0244 29.3168 23.5168 27.8244 23.5168 25.9835C23.5168 24.1425 22.0244 22.6501 20.1834 22.6501C18.3425 22.6501 16.8501 24.1425 16.8501 25.9835C16.8501 27.8244 18.3425 29.3168 20.1834 29.3168Z" stroke="#151515" stroke-width="2.5" stroke-linecap="round" stroke-linejoin="bevel"/>
<path d="M3.46681 9.55V13.5167C3.46681 14.4007 3.818 15.2486 4.44312 15.8737C5.06824 16.4988 5.91608 16.85 6.80014 16.85H8.33347C9.21753 16.85 10.0654 16.4988 10.6905 15.8737C11.3156 15.2486 11.6668 14.4007 11.6668 13.5167V11.4C17.1685 10.3061 22.8318 10.3061 28.3335 11.4V11.4V13.5167C28.3335 14.4007 28.6847 15.2486 29.3098 15.8737C29.9349 16.4988 30.7828 16.85 31.6668 16.85H33.1501C34.0342 16.85 34.882 16.4988 35.5072 15.8737C36.1323 15.2486 36.4835 14.4007 36.4835 13.5167V9.55C36.4906 9.15773 36.3591 8.77552 36.1122 8.47065C35.8652 8.16579 35.5187 7.95781 35.1335 7.88333C25.1117 5.86669 14.7886 5.86669 4.76681 7.88333V7.88333C4.39084 7.968 4.05583 8.18035 3.81881 8.48422C3.58178 8.7881 3.45739 9.16473 3.46681 9.55Z" stroke="#151515" stroke-width="2.5" stroke-linecap="round" stroke-linejoin="round"/>
</svg>
