<svg width="40" height="40" viewBox="0 0 40 40" fill="none" xmlns="http://www.w3.org/2000/svg">
<path d="M26.6666 13.3333H33.3333C34.2173 13.3333 35.0652 13.6844 35.6903 14.3096C36.3154 14.9347 36.6666 15.7825 36.6666 16.6666V26.6666C36.6666 27.5506 36.3154 28.3985 35.6903 29.0236C35.0652 29.6487 34.2173 29.9999 33.3333 29.9999H29.9999L26.6666 34.9999L21.6666 29.9999H16.6666C15.7825 29.9999 14.9347 29.6487 14.3096 29.0236C13.6844 28.3985 13.3333 27.5506 13.3333 26.6666V26.6666" stroke="#151515" stroke-width="2.5" stroke-linecap="round" stroke-linejoin="round"/>
<path d="M6.66659 5H23.3333C24.2173 5 25.0652 5.35119 25.6903 5.97631C26.3154 6.60143 26.6666 7.44928 26.6666 8.33333V18.3333C26.6666 19.2174 26.3154 20.0652 25.6903 20.6904C25.0652 21.3155 24.2173 21.6667 23.3333 21.6667H18.3333L13.3333 26.6667L8.33325 21.6667H6.66659C5.78253 21.6667 4.93468 21.3155 4.30956 20.6904C3.68444 20.0652 3.33325 19.2174 3.33325 18.3333V8.33333C3.33325 7.44928 3.68444 6.60143 4.30956 5.97631C4.93468 5.35119 5.78253 5 6.66659 5V5Z" stroke="#151515" stroke-width="2.5" stroke-linecap="round" stroke-linejoin="round"/>
</svg>
