<svg width="40" height="40" viewBox="0 0 40 40" fill="none" xmlns="http://www.w3.org/2000/svg">
<path d="M14.9999 23.6335H24.9999C25.4419 23.6335 25.8659 23.8091 26.1784 24.1217C26.491 24.4343 26.6666 24.8582 26.6666 25.3002V30.3002C26.6666 32.0683 25.9642 33.764 24.714 35.0143C23.4637 36.2645 21.768 36.9669 19.9999 36.9669C18.2318 36.9669 16.5361 36.2645 15.2859 35.0143C14.0356 33.764 13.3333 32.0683 13.3333 30.3002V25.3002C13.3333 24.8582 13.5088 24.4343 13.8214 24.1217C14.134 23.8091 14.5579 23.6335 14.9999 23.6335V23.6335Z" stroke="#151515" stroke-width="2.5" stroke-linecap="round" stroke-linejoin="round"/>
<path d="M19.8335 23.6335V9.4502" stroke="#151515" stroke-width="2.5" stroke-linecap="round" stroke-linejoin="round"/>
<path d="M22.0501 9.1167H17.9668C17.5248 9.1167 17.1008 8.9411 16.7883 8.62854C16.4757 8.31598 16.3001 7.89206 16.3001 7.45003V6.73337C16.3045 5.75342 16.6957 4.81485 17.3887 4.12192C18.0816 3.42898 19.0202 3.03775 20.0001 3.03337V3.03337C20.4882 3.03337 20.9715 3.1295 21.4224 3.31628C21.8734 3.50306 22.2831 3.77683 22.6282 4.12195C22.9733 4.46708 23.2471 4.8768 23.4339 5.32773C23.6207 5.77865 23.7168 6.26195 23.7168 6.75003V7.45003C23.7168 7.89206 23.5412 8.31598 23.2286 8.62854C22.9161 8.9411 22.4922 9.1167 22.0501 9.1167V9.1167Z" stroke="#151515" stroke-width="2.5" stroke-linecap="round" stroke-linejoin="round"/>
</svg>
