<svg width="40" height="40" viewBox="0 0 40 40" fill="none" xmlns="http://www.w3.org/2000/svg">
<path d="M31.6667 6.03345H8.33333C6.49238 6.03345 5 7.52583 5 9.36678V19.4334C5 21.2744 6.49238 22.7668 8.33333 22.7668H31.6667C33.5076 22.7668 35 21.2744 35 19.4334V9.36678C35 7.52583 33.5076 6.03345 31.6667 6.03345Z" stroke="#151515" stroke-width="2.5" stroke-linecap="round" stroke-linejoin="round"/>
<path d="M8.33325 22.7668L14.8166 6.03345" stroke="#151515" stroke-width="2.5" stroke-linecap="round" stroke-linejoin="round"/>
<path d="M17.3501 22.7668L24.5334 6.03345" stroke="#151515" stroke-width="2.5" stroke-linecap="round" stroke-linejoin="round"/>
<path d="M26.1167 22.7669L32.4834 6.63354" stroke="#151515" stroke-width="2.5" stroke-linecap="round" stroke-linejoin="round"/>
<path d="M15.2001 23.2002V31.6669C15.1531 32.3319 14.8442 32.9511 14.3411 33.3886C13.838 33.826 13.1819 34.046 12.5168 34.0002V34.0002C11.8544 34.0414 11.2026 33.8194 10.7032 33.3824C10.2038 32.9454 9.89716 32.3288 9.8501 31.6669V23.2002" stroke="#151515" stroke-width="2.5" stroke-linecap="round" stroke-linejoin="round"/>
<path d="M29.3002 23.2002V31.6669C29.2449 32.3167 28.9394 32.9198 28.4482 33.3488C27.957 33.7779 27.3183 33.9995 26.6669 33.9669V33.9669C26.0046 34.0081 25.3528 33.786 24.8533 33.349C24.3539 32.912 24.0473 32.2955 24.0002 31.6335V23.2002" stroke="#151515" stroke-width="2.5" stroke-linecap="round" stroke-linejoin="round"/>
</svg>
