<svg width="40" height="40" viewBox="0 0 40 40" fill="none" xmlns="http://www.w3.org/2000/svg">
<path d="M10.7666 19.5833H22.4333C23.3173 19.5833 24.1652 19.9344 24.7903 20.5596C25.4154 21.1847 25.7666 22.0325 25.7666 22.9166V34.5833" stroke="#151515" stroke-width="2.5" stroke-linecap="round" stroke-linejoin="round"/>
<path d="M14.1001 24.5166L9.3334 19.7499C9.27125 19.6848 9.23657 19.5983 9.23657 19.5083C9.23657 19.4183 9.27125 19.3317 9.3334 19.2666L14.1001 14.5166" stroke="#151515" stroke-width="2.5" stroke-linecap="round" stroke-linejoin="round"/>
<path d="M25.7666 22.9167V6.25" stroke="#151515" stroke-width="2.5" stroke-linecap="round" stroke-linejoin="round"/>
<path d="M20.7666 10.2666L25.5333 5.51664C25.5629 5.48431 25.599 5.4585 25.6392 5.44084C25.6793 5.42318 25.7227 5.41406 25.7666 5.41406C25.8105 5.41406 25.8539 5.42318 25.894 5.44084C25.9342 5.4585 25.9703 5.48431 25.9999 5.51664L30.7666 10.2666" stroke="#151515" stroke-width="2.5" stroke-linecap="round" stroke-linejoin="round"/>
</svg>
