<svg width="40" height="40" viewBox="0 0 40 40" fill="none" xmlns="http://www.w3.org/2000/svg">
<path d="M30 10H23.3333C22.4493 10 21.6014 10.3512 20.9763 10.9763C20.3512 11.6014 20 12.4493 20 13.3333V35" stroke="#151515" stroke-width="2.5" stroke-linecap="round" stroke-linejoin="round"/>
<path d="M26.6667 15L31.5001 10.2C31.5622 10.1349 31.5969 10.0483 31.5969 9.95833C31.5969 9.86832 31.5622 9.78177 31.5001 9.71667L26.6667 5" stroke="#151515" stroke-width="2.5" stroke-linecap="round" stroke-linejoin="round"/>
<path d="M10 10H16.6667C17.5507 10 18.3986 10.3512 19.0237 10.9763C19.6488 11.6014 20 12.4493 20 13.3333V35" stroke="#151515" stroke-width="2.5" stroke-linecap="round" stroke-linejoin="round"/>
<path d="M13.3335 15L8.50015 10.2C8.438 10.1349 8.40332 10.0483 8.40332 9.95833C8.40332 9.86832 8.438 9.78177 8.50015 9.71667L13.3335 5" stroke="#151515" stroke-width="2.5" stroke-linecap="round" stroke-linejoin="round"/>
</svg>
