<svg width="40" height="40" viewBox="0 0 40 40" fill="none" xmlns="http://www.w3.org/2000/svg">
<path d="M33.3333 10H26.6666C25.7825 10 24.9347 10.3512 24.3096 10.9763C23.6844 11.6014 23.3333 12.4493 23.3333 13.3333V35" stroke="#151515" stroke-width="2.5" stroke-linecap="round" stroke-linejoin="round"/>
<path d="M30 15L34.8333 10.2C34.8955 10.1349 34.9302 10.0483 34.9302 9.95833C34.9302 9.86832 34.8955 9.78177 34.8333 9.71667L30 5" stroke="#151515" stroke-width="2.5" stroke-linecap="round" stroke-linejoin="round"/>
<path d="M6.6665 10H13.3332C14.2172 10 15.0651 10.3512 15.6902 10.9763C16.3153 11.6014 16.6665 12.4493 16.6665 13.3333V35" stroke="#151515" stroke-width="2.5" stroke-linecap="round" stroke-linejoin="round"/>
<path d="M9.99998 15L5.16665 10.2C5.1045 10.1349 5.06982 10.0483 5.06982 9.95833C5.06982 9.86832 5.1045 9.78177 5.16665 9.71667L9.99998 5" stroke="#151515" stroke-width="2.5" stroke-linecap="round" stroke-linejoin="round"/>
</svg>
