<svg width="40" height="40" viewBox="0 0 40 40" fill="none" xmlns="http://www.w3.org/2000/svg">
<path d="M29.2334 19.5833H17.5667C16.6827 19.5833 15.8348 19.9344 15.2097 20.5596C14.5846 21.1847 14.2334 22.0325 14.2334 22.9166V34.5833" stroke="#151515" stroke-width="2.5" stroke-linecap="round" stroke-linejoin="round"/>
<path d="M25.9001 24.5166L30.6668 19.7499C30.729 19.6848 30.7636 19.5983 30.7636 19.5083C30.7636 19.4183 30.729 19.3317 30.6668 19.2666L25.9001 14.5166" stroke="#151515" stroke-width="2.5" stroke-linecap="round" stroke-linejoin="round"/>
<path d="M14.2334 22.9167V6.25" stroke="#151515" stroke-width="2.5" stroke-linecap="round" stroke-linejoin="round"/>
<path d="M19.2334 10.2666L14.4667 5.51664C14.4371 5.48431 14.401 5.4585 14.3608 5.44084C14.3207 5.42318 14.2773 5.41406 14.2334 5.41406C14.1895 5.41406 14.1461 5.42318 14.106 5.44084C14.0658 5.4585 14.0297 5.48431 14.0001 5.51664L9.2334 10.2666" stroke="#151515" stroke-width="2.5" stroke-linecap="round" stroke-linejoin="round"/>
</svg>
