<svg width="40" height="40" viewBox="0 0 40 40" fill="none" xmlns="http://www.w3.org/2000/svg">
<path d="M31.8335 6.6167H8.16683C6.32588 6.6167 4.8335 8.10908 4.8335 9.95003V22.7334C4.8335 24.5743 6.32588 26.0667 8.16683 26.0667H31.8335C33.6744 26.0667 35.1668 24.5743 35.1668 22.7334V9.95003C35.1668 8.10908 33.6744 6.6167 31.8335 6.6167Z" stroke="#151515" stroke-width="2.5" stroke-linecap="round" stroke-linejoin="round"/>
<path d="M34.0834 26.3335L37.6001 31.3335C37.7595 31.5884 37.847 31.8817 37.8533 32.1824C37.8596 32.483 37.7844 32.7797 37.6358 33.0411C37.4872 33.3025 37.2706 33.5188 37.0091 33.6671C36.7475 33.8154 36.4507 33.8902 36.1501 33.8835H3.85008C3.54947 33.8902 3.25266 33.8154 2.99109 33.6671C2.72953 33.5188 2.51296 33.3025 2.36433 33.0411C2.21571 32.7797 2.14056 32.483 2.14685 32.1824C2.15314 31.8817 2.24064 31.5884 2.40008 31.3335L5.91674 26.3335" stroke="#151515" stroke-width="2.5" stroke-linecap="round" stroke-linejoin="round"/>
</svg>
