<svg width="40" height="40" viewBox="0 0 40 40" fill="none" xmlns="http://www.w3.org/2000/svg">
<path d="M1.83306 17.85L6.66639 5H33.0997C33.1674 5.00335 33.2328 5.02536 33.2887 5.06361C33.3446 5.10185 33.3888 5.15483 33.4164 5.21667L38.1664 17.8833C38.1854 17.9341 38.1917 17.9887 38.1848 18.0425C38.1779 18.0963 38.158 18.1475 38.1268 18.1919C38.0956 18.2362 38.054 18.2722 38.0058 18.2969C37.9575 18.3215 37.9039 18.3341 37.8497 18.3333H29.9997L24.9997 15L19.9997 18.3333L14.9997 15L9.99972 18.3333H2.14972C2.09123 18.3367 2.03287 18.3246 1.98054 18.2983C1.92821 18.2719 1.88374 18.2322 1.85163 18.1832C1.81952 18.1342 1.8009 18.0776 1.79764 18.0191C1.79437 17.9606 1.80659 17.9023 1.83306 17.85Z" stroke="#151515" stroke-width="2.5" stroke-linecap="round" stroke-linejoin="round"/>
<path d="M6.61646 18.3L6.66646 34.9667" stroke="#151515" stroke-width="2.5" stroke-linecap="round" stroke-linejoin="round"/>
<path d="M33.3333 18.3L33.3833 34.9667" stroke="#151515" stroke-width="2.5" stroke-linecap="round" stroke-linejoin="round"/>
<path d="M36.6666 34.9666L3.33325 35.0332" stroke="#151515" stroke-width="2.5" stroke-linecap="round" stroke-linejoin="round"/>
<path d="M13.3333 34.9999V23.6666C13.3333 23.5782 13.3684 23.4934 13.4309 23.4309C13.4934 23.3684 13.5782 23.3333 13.6666 23.3333H26.3333C26.4217 23.3333 26.5064 23.3684 26.569 23.4309C26.6315 23.4934 26.6666 23.5782 26.6666 23.6666V34.9999" stroke="#151515" stroke-width="2.5" stroke-linecap="round" stroke-linejoin="round"/>
<path d="M20 34.9667V23.3" stroke="#151515" stroke-width="2.5" stroke-linecap="round" stroke-linejoin="round"/>
</svg>
