<svg width="40" height="40" viewBox="0 0 40 40" fill="none" xmlns="http://www.w3.org/2000/svg">
<path d="M7.78325 30.0001H6.66659C5.78253 30.0001 4.93468 29.6489 4.30956 29.0238C3.68444 28.3986 3.33325 27.5508 3.33325 26.6667V10.8167C3.33325 9.93268 3.68444 9.08483 4.30956 8.45971C4.93468 7.83459 5.78253 7.4834 6.66659 7.4834H22.9666C23.8506 7.4834 24.6985 7.83459 25.3236 8.45971C25.9487 9.08483 26.2999 9.93268 26.2999 10.8167V22.3334" stroke="#151515" stroke-width="2.5" stroke-linecap="round" stroke-linejoin="round"/>
<path d="M26.8997 13.6502H30.883C31.1813 13.6494 31.4759 13.7166 31.7444 13.8465C32.013 13.9764 32.2484 14.1658 32.433 14.4002L36.1997 19.4002C36.5847 19.9154 36.7949 20.5403 36.7997 21.1835V29.5168C36.7997 29.6052 36.7645 29.69 36.702 29.7525C36.6395 29.815 36.5547 29.8502 36.4663 29.8502H31.383" stroke="#151515" stroke-width="2.5" stroke-linecap="round" stroke-linejoin="round"/>
<path d="M27.5163 33.4335C29.5782 33.4335 31.2496 31.762 31.2496 29.7001C31.2496 27.6383 29.5782 25.9668 27.5163 25.9668C25.4544 25.9668 23.783 27.6383 23.783 29.7001C23.783 31.762 25.4544 33.4335 27.5163 33.4335Z" stroke="#151515" stroke-width="2.5" stroke-linecap="round" stroke-linejoin="round"/>
<path d="M11.7001 33.4335C13.762 33.4335 15.4335 31.762 15.4335 29.7001C15.4335 27.6383 13.762 25.9668 11.7001 25.9668C9.63827 25.9668 7.9668 27.6383 7.9668 29.7001C7.9668 31.762 9.63827 33.4335 11.7001 33.4335Z" stroke="#151515" stroke-width="2.5" stroke-linecap="round" stroke-linejoin="round"/>
<path d="M23.2 29.9167H15.6167" stroke="#151515" stroke-width="2.5" stroke-linecap="round" stroke-linejoin="round"/>
</svg>
