<svg width="40" height="40" viewBox="0 0 40 40" fill="none" xmlns="http://www.w3.org/2000/svg">
<path d="M32.5 21.9001V30.0001C32.5 30.8841 32.1488 31.732 31.5237 32.3571C30.8986 32.9822 30.0507 33.3334 29.1667 33.3334H10.8333C9.94928 33.3334 9.10143 32.9822 8.47631 32.3571C7.85119 31.732 7.5 30.8841 7.5 30.0001V21.6667" stroke="#151515" stroke-width="2.5" stroke-linecap="round" stroke-linejoin="round"/>
<path d="M7.5 16.1334V10.0001C7.5 9.11603 7.85119 8.26818 8.47631 7.64306C9.10143 7.01794 9.94928 6.66675 10.8333 6.66675H29.1667C30.0507 6.66675 30.8986 7.01794 31.5237 7.64306C32.1488 8.26818 32.5 9.11603 32.5 10.0001V16.1334" stroke="#151515" stroke-width="2.5" stroke-linecap="round" stroke-linejoin="round"/>
<path d="M3.33337 16.6667H36.6667" stroke="#151515" stroke-width="2.5" stroke-linecap="round" stroke-linejoin="round"/>
</svg>
