<svg width="40" height="40" viewBox="0 0 40 40" fill="none" xmlns="http://www.w3.org/2000/svg">
<path d="M20 36.6668C29.2048 36.6668 36.6667 29.2049 36.6667 20.0002C36.6667 10.7954 29.2048 3.3335 20 3.3335C10.7953 3.3335 3.33337 10.7954 3.33337 20.0002C3.33337 29.2049 10.7953 36.6668 20 36.6668Z" stroke="#151515" stroke-width="2.5" stroke-linecap="round" stroke-linejoin="round"/>
<path d="M14.1667 18.3335C15.5475 18.3335 16.6667 17.2142 16.6667 15.8335C16.6667 14.4528 15.5475 13.3335 14.1667 13.3335C12.786 13.3335 11.6667 14.4528 11.6667 15.8335C11.6667 17.2142 12.786 18.3335 14.1667 18.3335Z" stroke="#151515" stroke-width="2.5" stroke-linecap="round" stroke-linejoin="round"/>
<path d="M25.8334 18.3335C27.2141 18.3335 28.3334 17.2142 28.3334 15.8335C28.3334 14.4528 27.2141 13.3335 25.8334 13.3335C24.4527 13.3335 23.3334 14.4528 23.3334 15.8335C23.3334 17.2142 24.4527 18.3335 25.8334 18.3335Z" stroke="#151515" stroke-width="2.5" stroke-linecap="round" stroke-linejoin="round"/>
<path d="M11.6667 23.3335H28.3334" stroke="#151515" stroke-width="2.5" stroke-linecap="round" stroke-linejoin="round"/>
<path d="M19.1501 23.3335V27.0835C19.1501 27.4679 19.2261 27.8486 19.3737 28.2035C19.5214 28.5585 19.7377 28.8808 20.0103 29.1518C20.2829 29.4229 20.6064 29.6374 20.9622 29.7829C21.318 29.9285 21.6991 30.0024 22.0835 30.0002V30.0002C22.857 30.0002 23.5989 29.6929 24.1459 29.1459C24.6929 28.5989 25.0001 27.857 25.0001 27.0835V23.3335" stroke="#151515" stroke-width="2.5" stroke-linecap="round" stroke-linejoin="round"/>
</svg>
