<svg width="40" height="40" viewBox="0 0 40 40" fill="none" xmlns="http://www.w3.org/2000/svg">
<path d="M19.9999 36.6668C29.2047 36.6668 36.6666 29.2049 36.6666 20.0002C36.6666 10.7954 29.2047 3.3335 19.9999 3.3335C10.7952 3.3335 3.33325 10.7954 3.33325 20.0002C3.33325 29.2049 10.7952 36.6668 19.9999 36.6668Z" stroke="#151515" stroke-width="2.5" stroke-linecap="round" stroke-linejoin="round"/>
<path d="M14.1665 18.3335C15.5472 18.3335 16.6665 17.2142 16.6665 15.8335C16.6665 14.4528 15.5472 13.3335 14.1665 13.3335C12.7858 13.3335 11.6665 14.4528 11.6665 15.8335C11.6665 17.2142 12.7858 18.3335 14.1665 18.3335Z" stroke="#151515" stroke-width="2.5" stroke-linecap="round" stroke-linejoin="round"/>
<path d="M25 29.417C24.9353 28.1538 24.3729 26.9677 23.4358 26.1181C22.4988 25.2685 21.2635 24.8247 20 24.8836V24.8836C18.7365 24.8247 17.5012 25.2685 16.5642 26.1181C15.6271 26.9677 15.0647 28.1538 15 29.417" stroke="#151515" stroke-width="2.5" stroke-linecap="round" stroke-linejoin="round"/>
<path d="M25.8333 18.3335C27.214 18.3335 28.3333 17.2142 28.3333 15.8335C28.3333 14.4528 27.214 13.3335 25.8333 13.3335C24.4525 13.3335 23.3333 14.4528 23.3333 15.8335C23.3333 17.2142 24.4525 18.3335 25.8333 18.3335Z" stroke="#151515" stroke-width="2.5" stroke-linecap="round" stroke-linejoin="round"/>
</svg>
