<svg width="40" height="40" viewBox="0 0 40 40" fill="none" xmlns="http://www.w3.org/2000/svg">
<path d="M33.3334 10.2666H6.66671C4.82576 10.2666 3.33337 11.759 3.33337 13.5999V26.3833C3.33337 28.2242 4.82576 29.7166 6.66671 29.7166H33.3334C35.1743 29.7166 36.6667 28.2242 36.6667 26.3833V13.5999C36.6667 11.759 35.1743 10.2666 33.3334 10.2666Z" stroke="#151515" stroke-width="2.5" stroke-linecap="round" stroke-linejoin="round"/>
<path d="M10 11.0833C10 12.8514 9.29766 14.5471 8.04742 15.7973C6.79718 17.0475 5.10148 17.7499 3.33337 17.7499V17.7499" stroke="#151515" stroke-width="2.5" stroke-linecap="round" stroke-linejoin="round"/>
<path d="M3.33337 22.1167C5.10148 22.1167 6.79718 22.8191 8.04742 24.0693C9.29766 25.3196 10 27.0153 10 28.7834" stroke="#151515" stroke-width="2.5" stroke-linecap="round" stroke-linejoin="round"/>
<path d="M30 28.7834C30 27.0153 30.7024 25.3196 31.9526 24.0693C33.2029 22.8191 34.8986 22.1167 36.6667 22.1167" stroke="#151515" stroke-width="2.5" stroke-linecap="round" stroke-linejoin="round"/>
<path d="M36.6667 17.7499C34.8986 17.7499 33.2029 17.0475 31.9526 15.7973C30.7024 14.5471 30 12.8514 30 11.0833V11.0833" stroke="#151515" stroke-width="2.5" stroke-linecap="round" stroke-linejoin="round"/>
<path d="M20.0001 23.3334C21.841 23.3334 23.3334 21.841 23.3334 20.0001C23.3334 18.1591 21.841 16.6667 20.0001 16.6667C18.1591 16.6667 16.6667 18.1591 16.6667 20.0001C16.6667 21.841 18.1591 23.3334 20.0001 23.3334Z" stroke="#151515" stroke-width="2.5" stroke-linecap="round" stroke-linejoin="round"/>
</svg>
