<svg width="40" height="40" viewBox="0 0 40 40" fill="none" xmlns="http://www.w3.org/2000/svg">
<path d="M33.7831 20.3999H6.19979C4.35884 20.3999 2.86646 21.8923 2.86646 23.7332V33.3332C2.86646 35.1742 4.35884 36.6666 6.19979 36.6666H33.7831C35.6241 36.6666 37.1165 35.1742 37.1165 33.3332V23.7332C37.1165 21.8923 35.6241 20.3999 33.7831 20.3999Z" stroke="#151515" stroke-width="2.5" stroke-linecap="round" stroke-linejoin="round"/>
<path d="M20.0001 9.99992C21.841 9.99992 23.3334 8.50753 23.3334 6.66659C23.3334 4.82564 21.841 3.33325 20.0001 3.33325C18.1591 3.33325 16.6667 4.82564 16.6667 6.66659C16.6667 8.50753 18.1591 9.99992 20.0001 9.99992Z" stroke="#151515" stroke-width="2.5" stroke-linecap="round" stroke-linejoin="round"/>
<path d="M21.95 10L29.7166 20.4" stroke="#151515" stroke-width="2.5" stroke-linecap="round" stroke-linejoin="round"/>
<path d="M18.0499 10L10.2832 20.4" stroke="#151515" stroke-width="2.5" stroke-linecap="round" stroke-linejoin="round"/>
</svg>
