<svg width="40" height="40" viewBox="0 0 40 40" fill="none" xmlns="http://www.w3.org/2000/svg">
<path d="M9.68318 33.0835C6.97644 30.9484 4.99841 28.0265 4.02161 24.7202C3.04481 21.414 3.11732 17.8863 4.22913 14.623C5.34095 11.3597 7.43736 8.52147 10.2295 6.49936C13.0217 4.47725 16.3723 3.37076 19.8195 3.33233C23.2668 3.29391 26.6412 4.32544 29.4777 6.28481C32.3143 8.24418 34.4734 11.035 35.6577 14.2726C36.842 17.5103 36.9931 21.0356 36.0903 24.3628C35.1874 27.69 33.275 30.6553 30.6165 32.8502" stroke="#151515" stroke-width="2.5" stroke-linecap="round" stroke-linejoin="round"/>
<path d="M22.8667 36.4167C21.9204 36.5847 20.9611 36.6684 20 36.6667C18.9262 36.6692 17.8547 36.5687 16.8 36.3667" stroke="#151515" stroke-width="2.5" stroke-linecap="round" stroke-linejoin="round"/>
<path d="M23.3335 16.6667H30.0002" stroke="#151515" stroke-width="2.5" stroke-linecap="round" stroke-linejoin="round"/>
<path d="M10 16.6667H16.6667" stroke="#151515" stroke-width="2.5" stroke-linecap="round" stroke-linejoin="round"/>
<path fill-rule="evenodd" clip-rule="evenodd" d="M13.3332 38.3334C12.936 38.3632 12.5368 38.3108 12.1607 38.1795C11.7846 38.0482 11.4396 37.8408 11.1472 37.5703C10.8547 37.2997 10.6212 36.9719 10.4611 36.6071C10.301 36.2423 10.2177 35.8484 10.2166 35.4501L11.6666 16.6667H14.9999L16.4499 35.4501C16.4487 35.8484 16.3655 36.2423 16.2054 36.6071C16.0452 36.9719 15.8117 37.2997 15.5193 37.5703C15.2269 37.8408 14.8818 38.0482 14.5057 38.1795C14.1296 38.3108 13.7305 38.3632 13.3332 38.3334V38.3334Z" stroke="#151515" stroke-width="2.5" stroke-linecap="round" stroke-linejoin="round"/>
<path fill-rule="evenodd" clip-rule="evenodd" d="M26.6667 38.3334C26.2695 38.3632 25.8703 38.3108 25.4942 38.1795C25.1181 38.0482 24.7731 37.8408 24.4807 37.5703C24.1882 37.2997 23.9547 36.9719 23.7946 36.6071C23.6345 36.2423 23.5512 35.8484 23.55 35.4501L25 16.6667H28.3334L29.7834 35.4501C29.7822 35.8484 29.699 36.2423 29.5389 36.6071C29.3787 36.9719 29.1452 37.2997 28.8528 37.5703C28.5603 37.8408 28.2153 38.0482 27.8392 38.1795C27.4631 38.3108 27.064 38.3632 26.6667 38.3334V38.3334Z" stroke="#151515" stroke-width="2.5" stroke-linecap="round" stroke-linejoin="round"/>
</svg>
