<svg width="40" height="40" viewBox="0 0 40 40" fill="none" xmlns="http://www.w3.org/2000/svg">
<path d="M29.8837 13.4502C29.9992 13.543 30.1218 13.6266 30.2504 13.7002C30.3837 13.7002 30.5171 13.8502 30.6504 13.9002C31.2926 14.1655 31.9902 14.2687 32.6816 14.2007C33.3731 14.1327 34.0372 13.8955 34.6153 13.5101C35.1934 13.1246 35.6678 12.6029 35.9966 11.9907C36.3253 11.3786 36.4984 10.695 36.5004 10.0002L36.6671 3.33352C36.6745 3.23921 36.655 3.14474 36.6108 3.06108C36.5667 2.97742 36.4997 2.908 36.4177 2.86088C36.3356 2.81376 36.2419 2.79088 36.1474 2.79488C36.0529 2.79889 35.9615 2.82962 35.8837 2.88352L30.2504 6.46685C29.6617 6.82496 29.1692 7.32137 28.8159 7.91299C28.4626 8.50461 28.259 9.17353 28.2229 9.86168C28.1867 10.5498 28.3191 11.2364 28.6086 11.8618C28.898 12.4871 29.3357 13.0324 29.8837 13.4502V13.4502Z" stroke="#151515" stroke-width="2.5" stroke-linecap="round" stroke-linejoin="bevel"/>
<path d="M35.3501 13.4837C36.9196 17.1692 37.1093 21.2967 35.8843 25.1105C34.6593 28.9244 32.1017 32.1695 28.6797 34.2518C25.2577 36.3341 21.2002 37.1142 17.2499 36.4494C13.2997 35.7846 9.7211 33.7193 7.16918 30.6316C4.61725 27.5439 3.26276 23.6404 3.35366 19.6357C3.44456 15.6309 4.97478 11.7929 7.66417 8.82418C10.3536 5.85546 14.0222 3.95466 17.9985 3.46976C21.9748 2.98487 25.9928 3.9483 29.3168 6.18371" stroke="#151515" stroke-width="2.5" stroke-linecap="round" stroke-linejoin="round"/>
<path d="M15 28.3335H25" stroke="#151515" stroke-width="2.5" stroke-linecap="round" stroke-linejoin="round"/>
<path d="M15 18.3335V13.3335" stroke="#151515" stroke-width="2.5" stroke-linecap="round" stroke-linejoin="round"/>
<path d="M25 18.3335V13.3335" stroke="#151515" stroke-width="2.5" stroke-linecap="round" stroke-linejoin="round"/>
</svg>
