<svg width="40" height="40" viewBox="0 0 40 40" fill="none" xmlns="http://www.w3.org/2000/svg">
<path d="M34.6667 11.7168H5.33333C5.14924 11.7168 5 11.866 5 12.0501V18.0501C5 18.2342 5.14924 18.3835 5.33333 18.3835H34.6667C34.8508 18.3835 35 18.2342 35 18.0501V12.0501C35 11.866 34.8508 11.7168 34.6667 11.7168Z" stroke="#151515" stroke-width="2.5" stroke-linecap="round" stroke-linejoin="round"/>
<path d="M31.6666 18.3333V31.6666C31.6666 32.5506 31.3154 33.3985 30.6903 34.0236C30.0652 34.6487 29.2173 34.9999 28.3333 34.9999H11.6666C10.7825 34.9999 9.93468 34.6487 9.30956 34.0236C8.68444 33.3985 8.33325 32.5506 8.33325 31.6666V18.3333" stroke="#151515" stroke-width="2.5" stroke-linecap="round" stroke-linejoin="round"/>
<path d="M7.18303 11.6667V11.2001C7.0853 10.2297 7.28036 9.25233 7.74308 8.39382C8.20579 7.53531 8.91497 6.83502 9.77924 6.38316C10.6435 5.9313 11.6233 5.74858 12.5923 5.85853C13.5614 5.96848 14.4753 6.36607 15.2164 7.00007L20.5164 11.6667" stroke="#151515" stroke-width="2.5" stroke-linecap="round" stroke-linejoin="round"/>
<path d="M32.817 10.9168V10.4501C32.9373 9.46634 32.7555 8.46925 32.2956 7.5913C31.8357 6.71336 31.1196 5.99613 30.2423 5.5349C29.3651 5.07367 28.3683 4.89028 27.3843 5.0091C26.4004 5.12792 25.4759 5.54332 24.7336 6.20011L19.4836 10.9168" stroke="#151515" stroke-width="2.5" stroke-linecap="round" stroke-linejoin="round"/>
</svg>
