<svg width="40" height="40" viewBox="0 0 40 40" fill="none" xmlns="http://www.w3.org/2000/svg">
<path d="M20 36.6668C29.2048 36.6668 36.6667 29.2049 36.6667 20.0002C36.6667 10.7954 29.2048 3.3335 20 3.3335C10.7953 3.3335 3.33337 10.7954 3.33337 20.0002C3.33337 29.2049 10.7953 36.6668 20 36.6668Z" stroke="#151515" stroke-width="2.5" stroke-linecap="round" stroke-linejoin="round"/>
<path d="M15 28.3335H25" stroke="#151515" stroke-width="2.5" stroke-linecap="round" stroke-linejoin="round"/>
<path d="M11.6667 17.5C11.6667 16.837 11.9301 16.2011 12.399 15.7322C12.8678 15.2634 13.5037 15 14.1667 15C14.8298 15 15.4657 15.2634 15.9345 15.7322C16.4034 16.2011 16.6667 16.837 16.6667 17.5" stroke="#151515" stroke-width="2.5" stroke-linecap="round" stroke-linejoin="round"/>
<path d="M23.3334 17.5C23.3334 16.837 23.5968 16.2011 24.0656 15.7322C24.5344 15.2634 25.1703 15 25.8334 15V15C26.4964 15 27.1323 15.2634 27.6011 15.7322C28.07 16.2011 28.3334 16.837 28.3334 17.5" stroke="#151515" stroke-width="2.5" stroke-linecap="round" stroke-linejoin="round"/>
</svg>
