<svg width="40" height="40" viewBox="0 0 40 40" fill="none" xmlns="http://www.w3.org/2000/svg">
<path d="M13.3333 5L29.9999 21.6667" stroke="#151515" stroke-width="2.5" stroke-linecap="round" stroke-linejoin="round"/>
<path d="M14.9998 6.66675L4.01643 17.6501C3.39559 18.2746 3.04712 19.1195 3.04712 20.0001C3.04712 20.8807 3.39559 21.7255 4.01643 22.3501L12.7164 31.0501C13.338 31.6509 14.1686 31.9867 15.0331 31.9867C15.8976 31.9867 16.7282 31.6509 17.3498 31.0501L28.7331 20.3334" stroke="#151515" stroke-width="2.5" stroke-linecap="round" stroke-linejoin="round"/>
<path d="M3.33325 20H28.3332" stroke="#151515" stroke-width="2.5" stroke-linecap="round" stroke-linejoin="round"/>
<path d="M10 20V28.3333" stroke="#151515" stroke-width="2.5" stroke-linecap="round" stroke-linejoin="round"/>
<path d="M15 20V31.6667" stroke="#151515" stroke-width="2.5" stroke-linecap="round" stroke-linejoin="round"/>
<path d="M20 20V28.3333" stroke="#151515" stroke-width="2.5" stroke-linecap="round" stroke-linejoin="round"/>
<path d="M32.0995 37.3501H32.9995C33.6836 37.26 34.3353 37.0042 34.8979 36.6047C35.4606 36.2053 35.917 35.6744 36.2276 35.0582C36.5381 34.442 36.6933 33.7593 36.6797 33.0694C36.6661 32.3796 36.4841 31.7035 36.1495 31.1001L33.0162 25.2667C32.9689 25.1873 32.9018 25.1215 32.8215 25.0758C32.7411 25.0301 32.6503 25.0061 32.5578 25.0061C32.4654 25.0061 32.3746 25.0301 32.2942 25.0758C32.2139 25.1215 32.1468 25.1873 32.0995 25.2667L28.9495 31.1001C28.6149 31.7035 28.4329 32.3796 28.4193 33.0694C28.4057 33.7593 28.5609 34.442 28.8714 35.0582C29.182 35.6744 29.6384 36.2053 30.2011 36.6047C30.7637 37.0042 31.4154 37.26 32.0995 37.3501V37.3501Z" stroke="#151515" stroke-width="2.5" stroke-linecap="round" stroke-linejoin="bevel"/>
</svg>
