<svg width="40" height="40" viewBox="0 0 40 40" fill="none" xmlns="http://www.w3.org/2000/svg">
<path d="M29.8668 13.6832L30.2502 13.9165L30.6502 14.1165C31.2874 14.3811 31.9798 14.4853 32.6667 14.4199C33.3536 14.3545 34.0139 14.1215 34.5898 13.7414C35.1657 13.3614 35.6395 12.8458 35.9696 12.2399C36.2998 11.6341 36.4762 10.9565 36.4835 10.2665L36.6668 3.59985C36.6682 3.50771 36.6448 3.41688 36.5993 3.33679C36.5537 3.25669 36.4875 3.19025 36.4076 3.14435C36.3277 3.09844 36.2369 3.07474 36.1448 3.07571C36.0526 3.07668 35.9624 3.10228 35.8835 3.14985L30.2502 6.66652C29.657 7.02448 29.1603 7.52202 28.8034 8.11582C28.4465 8.70962 28.2402 9.38167 28.2024 10.0734C28.1646 10.7652 28.2965 11.4558 28.5866 12.0849C28.8767 12.7141 29.3162 13.2627 29.8668 13.6832V13.6832Z" stroke="#151515" stroke-width="2.5" stroke-linecap="round" stroke-linejoin="bevel"/>
<path d="M35.3501 13.7C36.9196 17.3855 37.1093 21.513 35.8843 25.3269C34.6593 29.1407 32.1017 32.3858 28.6797 34.4681C25.2577 36.5504 21.2002 37.3305 17.2499 36.6657C13.2997 36.0009 9.7211 33.9356 7.16918 30.8479C4.61725 27.7602 3.26276 23.8567 3.35366 19.852C3.44456 15.8472 4.97478 12.0092 7.66417 9.04048C10.3536 6.07176 14.0222 4.17097 17.9985 3.68607C21.9748 3.20118 25.9928 4.16461 29.3168 6.40002" stroke="#151515" stroke-width="2.5" stroke-linecap="round" stroke-linejoin="round"/>
<path d="M11.6667 26.8833L12.9834 26.35C13.8616 25.9899 14.8065 25.8215 15.755 25.856C16.7035 25.8905 17.6337 26.1271 18.4834 26.55V26.55C21.0708 27.8273 24.0397 28.1005 26.8167 27.3167L28.3001 26.8833" stroke="#151515" stroke-width="2.5" stroke-linecap="round" stroke-linejoin="round"/>
<path d="M15 18.5498V13.5498" stroke="#151515" stroke-width="2.5" stroke-linecap="round" stroke-linejoin="round"/>
<path d="M25 18.5498V13.5498" stroke="#151515" stroke-width="2.5" stroke-linecap="round" stroke-linejoin="round"/>
</svg>
