<svg width="40" height="40" viewBox="0 0 40 40" fill="none" xmlns="http://www.w3.org/2000/svg">
<path d="M31.8833 36.1168L26.2333 31.7835C26.165 31.728 26.0797 31.6977 25.9917 31.6977C25.9037 31.6977 25.8183 31.728 25.75 31.7835L20.4 36.3668C20.3304 36.4267 20.2417 36.4596 20.15 36.4596C20.0583 36.4596 19.9695 36.4267 19.9 36.3668L13.8333 31.7835C13.7692 31.7261 13.6861 31.6944 13.6 31.6944C13.5139 31.6944 13.4308 31.7261 13.3667 31.7835L8.13333 36.0835C8.07528 36.1254 8.00705 36.151 7.93575 36.1575C7.86446 36.164 7.79272 36.1513 7.72802 36.1206C7.66332 36.09 7.60803 36.0426 7.56793 35.9833C7.52782 35.924 7.50436 35.855 7.5 35.7835V6.85018C7.5 5.96612 7.85119 5.11828 8.47631 4.49316C9.10143 3.86804 9.94928 3.51685 10.8333 3.51685H29.1667C30.0507 3.51685 30.8986 3.86804 31.5237 4.49316C32.1488 5.11828 32.5 5.96612 32.5 6.85018V35.8168C32.4992 35.888 32.4787 35.9576 32.4406 36.0178C32.4025 36.0779 32.3484 36.1263 32.2844 36.1574C32.2204 36.1886 32.1489 36.2013 32.0781 36.1941C32.0073 36.1869 31.9398 36.1602 31.8833 36.1168V36.1168Z" stroke="#151515" stroke-width="2.5" stroke-linecap="round" stroke-linejoin="round"/>
<path d="M11.8167 10.3669H25.15" stroke="#151515" stroke-width="2.5" stroke-linecap="round" stroke-linejoin="round"/>
<path d="M11.8167 17.0337H20.15" stroke="#151515" stroke-width="2.5" stroke-linecap="round" stroke-linejoin="round"/>
<path d="M11.8167 23.7002H26.8167" stroke="#151515" stroke-width="2.5" stroke-linecap="round" stroke-linejoin="round"/>
</svg>
