<svg width="40" height="40" viewBox="0 0 40 40" fill="none" xmlns="http://www.w3.org/2000/svg">
<path d="M15 36.8999H25" stroke="#151515" stroke-width="2.5" stroke-linecap="round" stroke-linejoin="round"/>
<path d="M20 30.2334V36.9001" stroke="#151515" stroke-width="2.5" stroke-linecap="round" stroke-linejoin="round"/>
<path d="M29.4331 30.2332H10.5664C10.0816 30.2391 9.60133 30.1391 9.15912 29.9403C8.71691 29.7414 8.3234 29.4485 8.00604 29.082C7.68868 28.7154 7.4551 28.284 7.3216 27.8179C7.18809 27.3518 7.15789 26.8622 7.23307 26.3832L9.99974 9.26653C10.0336 8.80894 10.1953 8.37006 10.4664 7.99987V7.99987C11.5394 6.51399 12.9437 5.29847 14.5681 4.44966C16.1924 3.60086 17.9922 3.1421 19.8247 3.10975C21.6572 3.0774 23.472 3.47235 25.1253 4.2633C26.7787 5.05425 28.225 6.21945 29.3497 7.66653L29.5831 7.96653C29.8871 8.35433 30.0672 8.82481 30.0997 9.31653L32.7831 26.3832C32.8585 26.8636 32.8279 27.3547 32.6935 27.822C32.559 28.2893 32.324 28.7216 32.0048 29.0884C31.6855 29.4553 31.2899 29.7478 30.8457 29.9456C30.4014 30.1434 29.9193 30.2415 29.4331 30.2332Z" stroke="#151515" stroke-width="2.5" stroke-linecap="round" stroke-linejoin="round"/>
</svg>
