<svg width="40" height="40" viewBox="0 0 40 40" fill="none" xmlns="http://www.w3.org/2000/svg">
<path d="M20 23.3335V36.6668" stroke="#151515" stroke-width="2.5" stroke-linecap="round" stroke-linejoin="round"/>
<path d="M21.4669 23.3333H18.5336C17.5151 23.335 16.5098 23.1035 15.5948 22.6563C14.6798 22.2092 13.8794 21.5583 13.255 20.7537C12.6306 19.9491 12.1989 19.0121 11.993 18.0148C11.787 17.0174 11.8123 15.986 12.0669 14.9999L13.7336 8.13326C14.0939 6.74925 14.9061 5.52525 16.0415 4.65562C17.1768 3.78599 18.5702 3.32057 20.0003 3.33326V3.33326C21.4284 3.33455 22.8154 3.81227 23.9414 4.69076C25.0674 5.56925 25.8682 6.7983 26.2169 8.18326L27.8836 15.0499C28.1283 16.0286 28.1476 17.0501 27.9402 18.0373C27.7328 19.0246 27.3041 19.9519 26.6863 20.7494C26.0685 21.547 25.2778 22.1939 24.3737 22.6414C23.4696 23.089 22.4757 23.3255 21.4669 23.3333Z" stroke="#151515" stroke-width="2.5" stroke-linecap="round" stroke-linejoin="round"/>
</svg>
