<svg width="40" height="40" viewBox="0 0 40 40" fill="none" xmlns="http://www.w3.org/2000/svg">
<path fill-rule="evenodd" clip-rule="evenodd" d="M21.9334 8.8336L16.7667 14.0003C16.7052 14.0631 16.6213 14.099 16.5334 14.1003H7.50008C6.61603 14.1003 5.76818 14.4515 5.14306 15.0766C4.51794 15.7017 4.16675 16.5495 4.16675 17.4336V23.3336C4.16675 24.2177 4.51794 25.0655 5.14306 25.6906C5.76818 26.3157 6.61603 26.6669 7.50008 26.6669H15.7167C15.7809 26.641 15.8526 26.641 15.9167 26.6669L21.9667 31.2003C22.0163 31.2374 22.0752 31.26 22.1368 31.2656C22.1985 31.2711 22.2605 31.2594 22.3158 31.2317C22.3712 31.2041 22.4178 31.1615 22.4503 31.1088C22.4828 31.0562 22.5001 30.9955 22.5001 30.9336V9.06693C22.4992 9.00169 22.4791 8.93815 22.4424 8.88419C22.4057 8.83024 22.354 8.78823 22.2937 8.76339C22.2334 8.73855 22.1671 8.73196 22.103 8.74444C22.039 8.75692 21.98 8.78792 21.9334 8.8336V8.8336Z" stroke="#151515" stroke-width="2.5" stroke-linecap="round" stroke-linejoin="round"/>
<path d="M26.6667 11.667C28.8769 11.667 30.9965 12.545 32.5593 14.1078C34.1221 15.6706 35.0001 17.7902 35.0001 20.0003V20.0003C35.0001 22.2105 34.1221 24.3301 32.5593 25.8929C30.9965 27.4557 28.8769 28.3337 26.6667 28.3337" stroke="#151515" stroke-width="2.5" stroke-linecap="round" stroke-linejoin="round"/>
</svg>
