<svg width="40" height="40" viewBox="0 0 40 40" fill="none" xmlns="http://www.w3.org/2000/svg">
<path d="M3.33329 23.3334V10.35C3.33095 9.88279 3.42687 9.42026 3.61483 8.99247C3.80279 8.56468 4.0786 8.18118 4.42434 7.86687C4.77009 7.55255 5.17806 7.31444 5.62177 7.16798C6.06549 7.02152 6.53504 6.96998 6.99996 7.01671L19.6666 8.33338H20.3333L33 7.06671C33.4649 7.01998 33.9344 7.07152 34.3781 7.21798C34.8219 7.36444 35.2298 7.60255 35.5756 7.91687C35.9213 8.23118 36.1971 8.61468 36.3851 9.04247C36.573 9.47026 36.669 9.93279 36.6666 10.4V23.3334" stroke="#151515" stroke-width="2.5" stroke-linecap="round" stroke-linejoin="round"/>
<path fill-rule="evenodd" clip-rule="evenodd" d="M16.6665 13.0166V21.55C16.6665 21.7167 16.7998 21.8333 16.9332 21.75L23.5998 17.4833C23.6286 17.4568 23.6516 17.4246 23.6673 17.3887C23.683 17.3529 23.6911 17.3141 23.6911 17.275C23.6911 17.2358 23.683 17.1971 23.6673 17.1613C23.6516 17.1254 23.6286 17.0932 23.5998 17.0666L16.9332 12.8167C16.7998 12.7333 16.6665 12.85 16.6665 13.0166Z" stroke="#151515" stroke-width="2.5" stroke-linecap="round" stroke-linejoin="round"/>
<path d="M6.53325 28.3335H6.79992C7.64861 28.3335 8.46254 28.6706 9.06266 29.2708C9.66278 29.8709 9.99992 30.6848 9.99992 31.5335V33.3335H3.33325V31.5335C3.33325 30.6848 3.67039 29.8709 4.27051 29.2708C4.87063 28.6706 5.68456 28.3335 6.53325 28.3335V28.3335Z" stroke="#151515" stroke-width="2.5" stroke-linecap="round" stroke-linejoin="round"/>
<path d="M19.8665 28.3335H20.1332C20.9819 28.3335 21.7958 28.6706 22.3959 29.2708C22.996 29.8709 23.3332 30.6848 23.3332 31.5335V33.3335H16.6665V31.5335C16.6665 30.6848 17.0036 29.8709 17.6038 29.2708C18.2039 28.6706 19.0178 28.3335 19.8665 28.3335V28.3335Z" stroke="#151515" stroke-width="2.5" stroke-linecap="round" stroke-linejoin="round"/>
<path d="M33.2 28.3335H33.4667C34.3154 28.3335 35.1293 28.6706 35.7294 29.2708C36.3295 29.8709 36.6667 30.6848 36.6667 31.5335V33.3335H30V31.5335C30 31.1133 30.0828 30.6972 30.2436 30.3089C30.4044 29.9207 30.6401 29.5679 30.9373 29.2708C31.2344 28.9736 31.5872 28.7379 31.9754 28.5771C32.3637 28.4163 32.7798 28.3335 33.2 28.3335V28.3335Z" stroke="#151515" stroke-width="2.5" stroke-linecap="round" stroke-linejoin="round"/>
</svg>
