<svg width="40" height="40" viewBox="0 0 40 40" fill="none" xmlns="http://www.w3.org/2000/svg">
<path d="M15 20.7002L23.05 9.43353C23.0806 9.38884 23.1217 9.35229 23.1696 9.32703C23.2175 9.30177 23.2708 9.28857 23.325 9.28857C23.3792 9.28857 23.4325 9.30177 23.4804 9.32703C23.5283 9.35229 23.5694 9.38884 23.6 9.43353L36.3333 30.1835C36.3667 30.2341 36.3856 30.2929 36.388 30.3534C36.3905 30.414 36.3764 30.474 36.3472 30.5272C36.3181 30.5803 36.275 30.6245 36.2227 30.655C36.1703 30.6855 36.1106 30.7011 36.05 30.7002H21.6667" stroke="#151515" stroke-width="2.5" stroke-linecap="round" stroke-linejoin="round"/>
<path fill-rule="evenodd" clip-rule="evenodd" d="M9.73333 21.0833L3.66666 30.1833C3.63333 30.234 3.61442 30.2927 3.61197 30.3532C3.60952 30.4138 3.62362 30.4739 3.65276 30.527C3.68189 30.5801 3.72497 30.6243 3.77734 30.6548C3.82971 30.6853 3.8894 30.7009 3.95 30.7H16.9333C16.9938 30.697 17.0523 30.6776 17.1026 30.6439C17.1529 30.6102 17.1931 30.5634 17.2188 30.5086C17.2445 30.4537 17.2548 30.3929 17.2485 30.3327C17.2423 30.2725 17.2197 30.2151 17.1833 30.1667L10.2667 21.0667C10.2343 21.0262 10.193 20.9938 10.146 20.9721C10.099 20.9504 10.0476 20.94 9.99583 20.9416C9.94407 20.9432 9.8934 20.9568 9.84783 20.9814C9.80227 21.0061 9.76306 21.0409 9.73333 21.0833V21.0833Z" stroke="#151515" stroke-width="2.5" stroke-linecap="round" stroke-linejoin="round"/>
</svg>
