<svg width="40" height="40" viewBox="0 0 40 40" fill="none" xmlns="http://www.w3.org/2000/svg">
<path d="M3.33325 11.6665H36.6666V34.6665C36.6666 34.7549 36.6315 34.8397 36.569 34.9022C36.5064 34.9647 36.4217 34.9998 36.3333 34.9998H3.66659C3.57818 34.9998 3.4934 34.9647 3.43088 34.9022C3.36837 34.8397 3.33325 34.7549 3.33325 34.6665V11.6665Z" stroke="#151515" stroke-width="2.5" stroke-linecap="round" stroke-linejoin="round"/>
<path d="M13.2336 34.9998V24.9998C13.2336 24.1158 13.5848 23.2679 14.21 22.6428C14.8351 22.0177 15.6829 21.6665 16.567 21.6665H23.3336C24.2177 21.6665 25.0655 22.0177 25.6907 22.6428C26.3158 23.2679 26.667 24.1158 26.667 24.9998V34.9998" stroke="#151515" stroke-width="2.5" stroke-linecap="round" stroke-linejoin="round"/>
<path d="M3.33325 11.6667V5.33333C3.33325 5.24493 3.36837 5.16014 3.43088 5.09763C3.4934 5.03512 3.57818 5 3.66659 5H9.66659C9.75499 5 9.83978 5.03512 9.90229 5.09763C9.9648 5.16014 9.99992 5.24493 9.99992 5.33333V11.6667" stroke="#151515" stroke-width="2.5" stroke-linecap="round" stroke-linejoin="round"/>
<path d="M16.6665 11.6667V5.33333C16.6665 5.24493 16.7016 5.16014 16.7641 5.09763C16.8266 5.03512 16.9114 5 16.9998 5H22.9998C23.0882 5 23.173 5.03512 23.2355 5.09763C23.2981 5.16014 23.3332 5.24493 23.3332 5.33333V11.6667" stroke="#151515" stroke-width="2.5" stroke-linecap="round" stroke-linejoin="round"/>
<path d="M30 11.6667V5.33333C30 5.24493 30.0351 5.16014 30.0976 5.09763C30.1601 5.03512 30.2449 5 30.3333 5H36.3333C36.4217 5 36.5065 5.03512 36.569 5.09763C36.6315 5.16014 36.6667 5.24493 36.6667 5.33333V11.6667" stroke="#151515" stroke-width="2.5" stroke-linecap="round" stroke-linejoin="round"/>
</svg>
