<svg width="40" height="40" viewBox="0 0 40 40" fill="none" xmlns="http://www.w3.org/2000/svg">
<path d="M30.0001 3.3335H10.0001C8.15913 3.3335 6.66675 4.82588 6.66675 6.66683V33.3335C6.66675 35.1744 8.15913 36.6668 10.0001 36.6668H30.0001C31.841 36.6668 33.3334 35.1744 33.3334 33.3335V6.66683C33.3334 4.82588 31.841 3.3335 30.0001 3.3335Z" stroke="#151515" stroke-width="2.5" stroke-linecap="round" stroke-linejoin="bevel"/>
<path d="M6.66675 13.3335H33.3334" stroke="#151515" stroke-width="2.5" stroke-linecap="round" stroke-linejoin="bevel"/>
<path d="M28.3333 8.3335H25" stroke="#151515" stroke-width="2.5" stroke-linecap="round" stroke-linejoin="bevel"/>
<path d="M18.3334 8.3335H11.6667" stroke="#151515" stroke-width="2.5" stroke-linecap="round" stroke-linejoin="bevel"/>
<path d="M20.0002 31.6668C23.6821 31.6668 26.6668 28.6821 26.6668 25.0002C26.6668 21.3183 23.6821 18.3335 20.0002 18.3335C16.3183 18.3335 13.3335 21.3183 13.3335 25.0002C13.3335 28.6821 16.3183 31.6668 20.0002 31.6668Z" stroke="#151515" stroke-width="2.5" stroke-linecap="round" stroke-linejoin="bevel"/>
</svg>
