<svg width="40" height="40" viewBox="0 0 40 40" fill="none" xmlns="http://www.w3.org/2000/svg">
<path fill-rule="evenodd" clip-rule="evenodd" d="M6.43325 8.50004L3.43325 11.5C3.3841 11.5444 3.34929 11.6025 3.33325 11.6667V31.2667C3.33325 31.3551 3.36837 31.4399 3.43088 31.5024C3.4934 31.5649 3.57818 31.6 3.66659 31.6H9.66659C9.75499 31.6 9.83978 31.5649 9.90229 31.5024C9.9648 31.4399 9.99992 31.3551 9.99992 31.2667V11.6667C9.99867 11.5788 9.96272 11.4949 9.89992 11.4334L6.89992 8.50004C6.87025 8.46771 6.8342 8.4419 6.79403 8.42424C6.75386 8.40658 6.71046 8.39746 6.66659 8.39746C6.62271 8.39746 6.57931 8.40658 6.53914 8.42424C6.49897 8.4419 6.46292 8.46771 6.43325 8.50004V8.50004Z" stroke="#151515" stroke-width="2.5" stroke-linecap="round" stroke-linejoin="round"/>
<path fill-rule="evenodd" clip-rule="evenodd" d="M19.7665 8.50002L16.7665 11.5C16.7174 11.5444 16.6825 11.6024 16.6665 11.6667V31.2667C16.6665 31.3551 16.7016 31.4399 16.7641 31.5024C16.8266 31.5649 16.9114 31.6 16.9998 31.6H22.9998C23.0882 31.6 23.173 31.5649 23.2355 31.5024C23.2981 31.4399 23.3332 31.3551 23.3332 31.2667V11.6667C23.3319 11.5788 23.296 11.4949 23.2332 11.4334L20.2332 8.43336C20.1991 8.40479 20.1594 8.38372 20.1166 8.37152C20.0738 8.35932 20.029 8.35627 19.985 8.36256C19.9409 8.36885 19.8987 8.38434 19.8611 8.40802C19.8235 8.43171 19.7912 8.46306 19.7665 8.50002V8.50002Z" stroke="#151515" stroke-width="2.5" stroke-linecap="round" stroke-linejoin="round"/>
<path fill-rule="evenodd" clip-rule="evenodd" d="M33.1 8.50002L30.1 11.5C30.0508 11.5444 30.016 11.6024 30 11.6667V31.2667C30 31.3551 30.0351 31.4399 30.0976 31.5024C30.1601 31.5649 30.2449 31.6 30.3333 31.6H36.3333C36.4217 31.6 36.5065 31.5649 36.569 31.5024C36.6315 31.4399 36.6667 31.3551 36.6667 31.2667V11.6667C36.6654 11.5788 36.6295 11.4949 36.5667 11.4334L33.5667 8.43336C33.5326 8.40479 33.4929 8.38372 33.4501 8.37152C33.4073 8.35932 33.3625 8.35627 33.3185 8.36256C33.2744 8.36885 33.2322 8.38434 33.1946 8.40802C33.1569 8.43171 33.1247 8.46306 33.1 8.50002V8.50002Z" stroke="#151515" stroke-width="2.5" stroke-linecap="round" stroke-linejoin="round"/>
<path d="M10 16.6001H16.6667" stroke="#151515" stroke-width="2.5" stroke-linecap="round" stroke-linejoin="round"/>
<path d="M10 23.2666H16.6667" stroke="#151515" stroke-width="2.5" stroke-linecap="round" stroke-linejoin="round"/>
<path d="M23.3333 16.6001H29.9999" stroke="#151515" stroke-width="2.5" stroke-linecap="round" stroke-linejoin="round"/>
<path d="M23.3333 23.2666H29.9999" stroke="#151515" stroke-width="2.5" stroke-linecap="round" stroke-linejoin="round"/>
</svg>
