<svg width="40" height="40" viewBox="0 0 40 40" fill="none" xmlns="http://www.w3.org/2000/svg">
<path d="M6.66658 3.3335H19.9999C20.884 3.3335 21.7318 3.68469 22.3569 4.30981C22.9821 4.93493 23.3333 5.78277 23.3333 6.66683V36.6668H6.66658C5.78253 36.6668 4.93468 36.3156 4.30956 35.6905C3.68444 35.0654 3.33325 34.2176 3.33325 33.3335V6.66683C3.33325 5.78277 3.68444 4.93493 4.30956 4.30981C4.93468 3.68469 5.78253 3.3335 6.66658 3.3335V3.3335Z" stroke="#151515" stroke-width="2.5" stroke-linecap="round" stroke-linejoin="round"/>
<path d="M23.3333 16.667H33.3333C34.2173 16.667 35.0652 17.0182 35.6903 17.6433C36.3154 18.2684 36.6666 19.1163 36.6666 20.0003V33.3337C36.6666 34.2177 36.3154 35.0656 35.6903 35.6907C35.0652 36.3158 34.2173 36.667 33.3333 36.667H23.3333" stroke="#151515" stroke-width="2.5" stroke-linecap="round" stroke-linejoin="round"/>
<path d="M8.33325 10H9.99992" stroke="#151515" stroke-width="2.5" stroke-linecap="round" stroke-linejoin="round"/>
<path d="M15 10H18.3333" stroke="#151515" stroke-width="2.5" stroke-linecap="round" stroke-linejoin="round"/>
<path d="M8.33325 16.667H9.99992" stroke="#151515" stroke-width="2.5" stroke-linecap="round" stroke-linejoin="round"/>
<path d="M15 16.667H18.3333" stroke="#151515" stroke-width="2.5" stroke-linecap="round" stroke-linejoin="round"/>
<path d="M8.33325 23.3335H9.99992" stroke="#151515" stroke-width="2.5" stroke-linecap="round" stroke-linejoin="round"/>
<path d="M15 23.3335H18.3333" stroke="#151515" stroke-width="2.5" stroke-linecap="round" stroke-linejoin="round"/>
<path d="M8.33325 30H9.99992" stroke="#151515" stroke-width="2.5" stroke-linecap="round" stroke-linejoin="round"/>
<path d="M15 30H18.3333" stroke="#151515" stroke-width="2.5" stroke-linecap="round" stroke-linejoin="round"/>
<path d="M28.3333 23.3335H31.6666" stroke="#151515" stroke-width="2.5" stroke-linecap="round" stroke-linejoin="round"/>
<path d="M28.3333 30H31.6666" stroke="#151515" stroke-width="2.5" stroke-linecap="round" stroke-linejoin="round"/>
</svg>
