<svg width="40" height="40" viewBox="0 0 40 40" fill="none" xmlns="http://www.w3.org/2000/svg">
<path d="M33.3333 5H6.66659C4.82564 5 3.33325 6.49238 3.33325 8.33333V21.6667C3.33325 23.5076 4.82564 25 6.66659 25H33.3333C35.1742 25 36.6666 23.5076 36.6666 21.6667V8.33333C36.6666 6.49238 35.1742 5 33.3333 5Z" stroke="#151515" stroke-width="2.5" stroke-linecap="round" stroke-linejoin="round"/>
<path d="M11.6665 5V8.33333C11.6665 9.21739 12.0177 10.0652 12.6428 10.6904C13.2679 11.3155 14.1158 11.6667 14.9998 11.6667H24.9998C25.8839 11.6667 26.7317 11.3155 27.3569 10.6904C27.982 10.0652 28.3332 9.21739 28.3332 8.33333V5.21667" stroke="#151515" stroke-width="2.5" stroke-linecap="round" stroke-linejoin="round"/>
<path d="M10 18.3335H30" stroke="#151515" stroke-width="2.5" stroke-linecap="round" stroke-linejoin="round"/>
<path d="M10 30V35" stroke="#151515" stroke-width="2.5" stroke-linecap="round" stroke-linejoin="round"/>
<path d="M16.6665 30V35" stroke="#151515" stroke-width="2.5" stroke-linecap="round" stroke-linejoin="round"/>
<path d="M23.3333 30V35" stroke="#151515" stroke-width="2.5" stroke-linecap="round" stroke-linejoin="round"/>
<path d="M30 30V35" stroke="#151515" stroke-width="2.5" stroke-linecap="round" stroke-linejoin="round"/>
</svg>
