<svg width="40" height="40" viewBox="0 0 40 40" fill="none" xmlns="http://www.w3.org/2000/svg">
<path fill-rule="evenodd" clip-rule="evenodd" d="M36.6664 14.0665C36.6664 11.7332 36.3998 9.66648 36.3164 8.88315C36.2857 8.63057 36.2049 8.38665 36.0789 8.1656C35.9529 7.94456 35.7841 7.75082 35.5824 7.59568C35.3808 7.44054 35.1502 7.32711 34.9042 7.26201C34.6583 7.19691 34.4018 7.18143 34.1498 7.21648C33.6498 7.21648 32.5664 7.41648 31.3498 7.46648C30.2317 7.53038 29.1101 7.44066 28.0164 7.19982C26.6972 6.74807 25.4633 6.0776 24.3664 5.21649C23.4161 4.5472 22.5139 3.81206 21.6664 3.01649C21.3115 2.68491 20.8438 2.50049 20.3581 2.50049C19.8724 2.50049 19.4047 2.68491 19.0498 3.01649C18.2347 3.78017 17.3778 4.49794 16.4831 5.16648C15.3794 6.03893 14.141 6.72571 12.8164 7.19982C11.5707 7.4813 10.2909 7.58233 9.01644 7.49982C7.97286 7.4566 6.93243 7.35646 5.89977 7.19982C5.64743 7.16241 5.39014 7.1762 5.14324 7.24036C4.89634 7.30453 4.6649 7.41776 4.4627 7.57329C4.2605 7.72883 4.0917 7.92349 3.96635 8.14567C3.841 8.36785 3.76167 8.61299 3.7331 8.86649C3.64977 9.66648 3.4331 11.7498 3.3331 14.0665C3.19296 16.3811 3.3385 18.7041 3.76644 20.9832C4.97317 24.7589 7.1926 28.1313 10.1831 30.7331C12.5601 32.9753 15.1375 34.9948 17.8831 36.7665C18.6189 37.2717 19.4905 37.5421 20.3831 37.5421C21.2757 37.5421 22.1473 37.2717 22.8831 36.7665C25.4831 34.9486 27.915 32.9016 30.1498 30.6498C32.9652 28.0289 35.0502 24.7205 36.1998 21.0498C36.6377 18.7495 36.7944 16.4046 36.6664 14.0665V14.0665Z" stroke="#151515" stroke-width="2.5" stroke-linecap="round" stroke-linejoin="round"/>
<path d="M28.3332 31.6665V29.9998C28.3332 27.7897 27.4552 25.6701 25.8924 24.1073C24.3296 22.5445 22.21 21.6665 19.9998 21.6665V21.6665C17.7897 21.6665 15.6701 22.5445 14.1073 24.1073C12.5445 25.6701 11.6665 27.7897 11.6665 29.9998V31.2832" stroke="#151515" stroke-width="2.5" stroke-linecap="round" stroke-linejoin="round"/>
<path d="M19.9999 19.9998C22.3011 19.9998 24.1666 18.1344 24.1666 15.8332C24.1666 13.532 22.3011 11.6665 19.9999 11.6665C17.6987 11.6665 15.8333 13.532 15.8333 15.8332C15.8333 18.1344 17.6987 19.9998 19.9999 19.9998Z" stroke="#151515" stroke-width="2.5" stroke-linecap="round" stroke-linejoin="round"/>
</svg>
