<svg width="40" height="40" viewBox="0 0 40 40" fill="none" xmlns="http://www.w3.org/2000/svg">
<path d="M13.8164 17.3667C17.7192 17.3667 20.8831 14.2029 20.8831 10.3001C20.8831 6.39725 17.7192 3.2334 13.8164 3.2334C9.91361 3.2334 6.74976 6.39725 6.74976 10.3001C6.74976 14.2029 9.91361 17.3667 13.8164 17.3667Z" stroke="#151515" stroke-width="2.5" stroke-linecap="round" stroke-linejoin="round"/>
<path d="M26.1834 36.75C31.0527 36.75 35 32.8027 35 27.9334C35 23.0641 31.0527 19.1167 26.1834 19.1167C21.3141 19.1167 17.3667 23.0641 17.3667 27.9334C17.3667 32.8027 21.3141 36.75 26.1834 36.75Z" stroke="#151515" stroke-width="2.5" stroke-linecap="round" stroke-linejoin="round"/>
<path d="M8.53333 31.4666C10.4847 31.4666 12.0667 29.8846 12.0667 27.9332C12.0667 25.9818 10.4847 24.3999 8.53333 24.3999C6.58193 24.3999 5 25.9818 5 27.9332C5 29.8846 6.58193 31.4666 8.53333 31.4666Z" stroke="#151515" stroke-width="2.5" stroke-linecap="round" stroke-linejoin="round"/>
</svg>
