<svg width="40" height="40" viewBox="0 0 40 40" fill="none" xmlns="http://www.w3.org/2000/svg">
<path d="M10 30V20C10 17.3478 11.0536 14.8043 12.9289 12.9289C14.8043 11.0536 17.3478 10 20 10V10C22.6522 10 25.1957 11.0536 27.0711 12.9289C28.9464 14.8043 30 17.3478 30 20V30" stroke="#151515" stroke-width="2.5" stroke-linecap="round" stroke-linejoin="round"/>
<path d="M20 3.3335V6.66683" stroke="#151515" stroke-width="2.5" stroke-linecap="round" stroke-linejoin="round"/>
<path d="M8.81689 5.4834L11.1836 7.85007" stroke="#151515" stroke-width="2.5" stroke-linecap="round" stroke-linejoin="round"/>
<path d="M31.1836 5.4834L28.8169 7.85007" stroke="#151515" stroke-width="2.5" stroke-linecap="round" stroke-linejoin="round"/>
<path d="M3.4668 12.667L6.53346 14.0003" stroke="#151515" stroke-width="2.5" stroke-linecap="round" stroke-linejoin="round"/>
<path d="M36.5502 12.7168L33.4502 13.9501" stroke="#151515" stroke-width="2.5" stroke-linecap="round" stroke-linejoin="round"/>
<path fill-rule="evenodd" clip-rule="evenodd" d="M36.2335 36.6667H3.76681C3.71505 36.6683 3.66362 36.6579 3.6166 36.6362C3.56957 36.6145 3.52825 36.5822 3.4959 36.5417C3.46355 36.5013 3.44106 36.4539 3.43023 36.4032C3.41939 36.3526 3.42051 36.3001 3.43348 36.25L3.73348 35C4.10347 33.567 4.93977 32.2979 6.11059 31.3926C7.28141 30.4874 8.72017 29.9974 10.2001 30H29.8001C31.2801 29.9974 32.7189 30.4874 33.8897 31.3926C35.0605 32.2979 35.8968 33.567 36.2668 35L36.5668 36.2C36.5902 36.2529 36.5993 36.3111 36.5934 36.3686C36.5875 36.4262 36.5667 36.4812 36.5331 36.5283C36.4994 36.5754 36.4541 36.6129 36.4016 36.6372C36.3491 36.6614 36.2911 36.6716 36.2335 36.6667Z" stroke="#151515" stroke-width="2.5" stroke-linecap="round" stroke-linejoin="round"/>
</svg>
