<svg width="40" height="40" viewBox="0 0 40 40" fill="none" xmlns="http://www.w3.org/2000/svg">
<path fill-rule="evenodd" clip-rule="evenodd" d="M36.6664 14.067C36.6664 11.7336 36.3998 9.66697 36.3164 8.88364C36.2857 8.63106 36.2049 8.38714 36.0789 8.16609C35.9529 7.94505 35.7841 7.7513 35.5824 7.59617C35.3808 7.44103 35.1502 7.3276 34.9042 7.2625C34.6583 7.19739 34.4018 7.18192 34.1498 7.21697C33.6498 7.21697 32.5664 7.41697 31.3498 7.46697C30.2317 7.53087 29.1101 7.44115 28.0164 7.20031C26.6972 6.74856 25.4633 6.07809 24.3664 5.21697C23.4161 4.54769 22.5139 3.81255 21.6664 3.01697C21.3115 2.6854 20.8438 2.50098 20.3581 2.50098C19.8724 2.50098 19.4047 2.6854 19.0498 3.01697C18.2347 3.78065 17.3778 4.49843 16.4831 5.16697C15.3794 6.03942 14.141 6.7262 12.8164 7.20031C11.5707 7.48179 10.2909 7.58282 9.01644 7.50031C7.97286 7.45709 6.93243 7.35694 5.89977 7.20031C5.64743 7.1629 5.39014 7.17669 5.14324 7.24085C4.89634 7.30502 4.6649 7.41824 4.4627 7.57378C4.2605 7.72932 4.0917 7.92398 3.96635 8.14616C3.841 8.36833 3.76167 8.61348 3.7331 8.86697C3.64977 9.66697 3.4331 11.7503 3.3331 14.067C3.19296 16.3816 3.3385 18.7046 3.76644 20.9836C4.97317 24.7594 7.1926 28.1318 10.1831 30.7336C12.5601 32.9757 15.1375 34.9953 17.8831 36.767C18.6189 37.2722 19.4905 37.5426 20.3831 37.5426C21.2757 37.5426 22.1473 37.2722 22.8831 36.767C25.4831 34.9491 27.915 32.902 30.1498 30.6503C32.9652 28.0294 35.0502 24.721 36.1998 21.0503C36.6377 18.75 36.7944 16.4051 36.6664 14.067V14.067Z" stroke="#151515" stroke-width="2.5" stroke-linecap="round" stroke-linejoin="round"/>
</svg>
