<svg width="40" height="40" viewBox="0 0 40 40" fill="none" xmlns="http://www.w3.org/2000/svg">
<path d="M33.3333 3.3335H6.66659C4.82564 3.3335 3.33325 4.82588 3.33325 6.66683V30.0002C3.33325 31.8411 4.82564 33.3335 6.66659 33.3335H33.3333C35.1742 33.3335 36.6666 31.8411 36.6666 30.0002V6.66683C36.6666 4.82588 35.1742 3.3335 33.3333 3.3335Z" stroke="#151515" stroke-width="2.5" stroke-linecap="round" stroke-linejoin="round"/>
<path d="M11.6665 33.3335V36.6668" stroke="#151515" stroke-width="2.5" stroke-linecap="round" stroke-linejoin="round"/>
<path d="M28.3333 33.3335V36.6668" stroke="#151515" stroke-width="2.5" stroke-linecap="round" stroke-linejoin="round"/>
<path d="M19.9998 26.6667C24.6022 26.6667 28.3332 22.9357 28.3332 18.3333C28.3332 13.731 24.6022 10 19.9998 10C15.3975 10 11.6665 13.731 11.6665 18.3333C11.6665 22.9357 15.3975 26.6667 19.9998 26.6667Z" stroke="#151515" stroke-width="2.5" stroke-linecap="round" stroke-linejoin="round"/>
<path d="M22.5667 21.1001L30 28.5501" stroke="#151515" stroke-width="2.5" stroke-linecap="round" stroke-linejoin="round"/>
<path d="M10 8.55029L17.4333 15.967" stroke="#151515" stroke-width="2.5" stroke-linecap="round" stroke-linejoin="round"/>
<path d="M17.7499 20.8003L9.58325 28.967" stroke="#151515" stroke-width="2.5" stroke-linecap="round" stroke-linejoin="round"/>
<path d="M30.4166 8.1333L22.7 15.85" stroke="#151515" stroke-width="2.5" stroke-linecap="round" stroke-linejoin="round"/>
<path d="M19.9998 21.6667C21.8408 21.6667 23.3332 20.1743 23.3332 18.3333C23.3332 16.4924 21.8408 15 19.9998 15C18.1589 15 16.6665 16.4924 16.6665 18.3333C16.6665 20.1743 18.1589 21.6667 19.9998 21.6667Z" stroke="#151515" stroke-width="2.5" stroke-linecap="round" stroke-linejoin="round"/>
</svg>
