<svg width="40" height="40" viewBox="0 0 40 40" fill="none" xmlns="http://www.w3.org/2000/svg">
<path d="M31.6667 5H8.33333C6.49238 5 5 6.49238 5 8.33333V10C5 11.8409 6.49238 13.3333 8.33333 13.3333H31.6667C33.5076 13.3333 35 11.8409 35 10V8.33333C35 6.49238 33.5076 5 31.6667 5Z" stroke="#151515" stroke-width="2.5" stroke-linecap="round" stroke-linejoin="round"/>
<path d="M13.3334 13.3335V18.3335" stroke="#151515" stroke-width="2.5" stroke-linecap="round" stroke-linejoin="round"/>
<path d="M26.6666 13.3335V18.3335" stroke="#151515" stroke-width="2.5" stroke-linecap="round" stroke-linejoin="round"/>
<path d="M31.6667 18.3335H8.33333C6.49238 18.3335 5 19.8259 5 21.6668V31.6668C5 33.5078 6.49238 35.0002 8.33333 35.0002H31.6667C33.5076 35.0002 35 33.5078 35 31.6668V21.6668C35 19.8259 33.5076 18.3335 31.6667 18.3335Z" stroke="#151515" stroke-width="2.5" stroke-linecap="round" stroke-linejoin="round"/>
<path d="M9.99996 31.0334C10.4602 31.0334 10.8333 30.6603 10.8333 30.2C10.8333 29.7398 10.4602 29.3667 9.99996 29.3667C9.53972 29.3667 9.16663 29.7398 9.16663 30.2C9.16663 30.6603 9.53972 31.0334 9.99996 31.0334Z" stroke="#151515" stroke-width="2.5" stroke-linecap="round" stroke-linejoin="round"/>
<path d="M23.3333 31.0334C23.7936 31.0334 24.1667 30.6603 24.1667 30.2C24.1667 29.7398 23.7936 29.3667 23.3333 29.3667C22.8731 29.3667 22.5 29.7398 22.5 30.2C22.5 30.6603 22.8731 31.0334 23.3333 31.0334Z" stroke="#151515" stroke-width="2.5" stroke-linecap="round" stroke-linejoin="round"/>
<path d="M16.6667 31.0334C17.1269 31.0334 17.5 30.6603 17.5 30.2C17.5 29.7398 17.1269 29.3667 16.6667 29.3667C16.2065 29.3667 15.8334 29.7398 15.8334 30.2C15.8334 30.6603 16.2065 31.0334 16.6667 31.0334Z" stroke="#151515" stroke-width="2.5" stroke-linecap="round" stroke-linejoin="round"/>
<path d="M30 31.0334C30.4602 31.0334 30.8333 30.6603 30.8333 30.2C30.8333 29.7398 30.4602 29.3667 30 29.3667C29.5397 29.3667 29.1666 29.7398 29.1666 30.2C29.1666 30.6603 29.5397 31.0334 30 31.0334Z" stroke="#151515" stroke-width="2.5" stroke-linecap="round" stroke-linejoin="round"/>
<path d="M9.99996 24.3669C10.4602 24.3669 10.8333 23.9938 10.8333 23.5335C10.8333 23.0733 10.4602 22.7002 9.99996 22.7002C9.53972 22.7002 9.16663 23.0733 9.16663 23.5335C9.16663 23.9938 9.53972 24.3669 9.99996 24.3669Z" stroke="#151515" stroke-width="2.5" stroke-linecap="round" stroke-linejoin="round"/>
<path d="M23.3333 24.3669C23.7936 24.3669 24.1667 23.9938 24.1667 23.5335C24.1667 23.0733 23.7936 22.7002 23.3333 22.7002C22.8731 22.7002 22.5 23.0733 22.5 23.5335C22.5 23.9938 22.8731 24.3669 23.3333 24.3669Z" stroke="#151515" stroke-width="2.5" stroke-linecap="round" stroke-linejoin="round"/>
<path d="M16.6667 24.3669C17.1269 24.3669 17.5 23.9938 17.5 23.5335C17.5 23.0733 17.1269 22.7002 16.6667 22.7002C16.2065 22.7002 15.8334 23.0733 15.8334 23.5335C15.8334 23.9938 16.2065 24.3669 16.6667 24.3669Z" stroke="#151515" stroke-width="2.5" stroke-linecap="round" stroke-linejoin="round"/>
<path d="M30 24.3669C30.4602 24.3669 30.8333 23.9938 30.8333 23.5335C30.8333 23.0733 30.4602 22.7002 30 22.7002C29.5397 22.7002 29.1666 23.0733 29.1666 23.5335C29.1666 23.9938 29.5397 24.3669 30 24.3669Z" stroke="#151515" stroke-width="2.5" stroke-linecap="round" stroke-linejoin="round"/>
</svg>
