<svg width="40" height="40" viewBox="0 0 40 40" fill="none" xmlns="http://www.w3.org/2000/svg">
<path fill-rule="evenodd" clip-rule="evenodd" d="M3.33363 5.35017V15.3502C3.331 15.4172 3.35092 15.4832 3.3902 15.5376C3.42947 15.5919 3.48584 15.6316 3.5503 15.6502L8.11696 17.3168C8.17999 17.3428 8.23407 17.3866 8.27256 17.4428C8.31105 17.4991 8.33227 17.5654 8.33363 17.6335V33.3335C8.33363 34.2176 8.68482 35.0654 9.30994 35.6905C9.93506 36.3156 10.7829 36.6668 11.667 36.6668H28.3336C29.2177 36.6668 30.0655 36.3156 30.6907 35.6905C31.3158 35.0654 31.667 34.2176 31.667 33.3335V17.6002C31.6686 17.5278 31.6916 17.4575 31.7331 17.3982C31.7747 17.3388 31.8328 17.2931 31.9003 17.2668L36.4503 15.6002C36.5047 15.5855 36.5538 15.5559 36.5921 15.5146C36.6305 15.4734 36.6564 15.4221 36.667 15.3668V5.36684C36.6679 5.28645 36.6397 5.20844 36.5876 5.14719C36.5356 5.08593 36.4631 5.04556 36.3836 5.0335L26.917 3.3335C26.8425 3.32301 26.7666 3.33679 26.7005 3.37282C26.6345 3.40884 26.5818 3.46519 26.5503 3.5335L24.767 7.31684C24.3386 8.21866 23.6636 8.98067 22.8199 9.51457C21.9763 10.0485 20.9987 10.3324 20.0003 10.3335V10.3335C19.0019 10.3324 18.0243 10.0485 17.1807 9.51457C16.337 8.98067 15.662 8.21866 15.2336 7.31684L13.4503 3.55017C13.4215 3.47875 13.37 3.41882 13.3037 3.37965C13.2374 3.34048 13.1601 3.32426 13.0836 3.3335L3.61696 5.00017C3.53453 5.01252 3.45971 5.0553 3.40726 5.12009C3.35481 5.18488 3.32854 5.26697 3.33363 5.35017V5.35017Z" stroke="#151515" stroke-width="2.5" stroke-linecap="round" stroke-linejoin="round"/>
</svg>
