<svg width="40" height="40" viewBox="0 0 40 40" fill="none" xmlns="http://www.w3.org/2000/svg">
<path d="M21.6666 10.8335V10.0002C21.6666 8.89509 21.2276 7.83529 20.4462 7.05388C19.6648 6.27248 18.605 5.8335 17.4999 5.8335V5.8335C16.3949 5.8335 15.335 6.27248 14.5536 7.05388C13.7722 7.83529 13.3333 8.89509 13.3333 10.0002V10.0002C13.331 11.1147 13.6528 12.2059 14.2594 13.1409C14.866 14.076 15.7313 14.8145 16.7499 15.2668L34.6999 23.3335C35.2796 23.594 35.7728 24.0149 36.1212 24.5464C36.4697 25.0779 36.6589 25.698 36.6666 26.3335V30.8335C36.6666 31.7176 36.3154 32.5654 35.6903 33.1905C35.0652 33.8156 34.2173 34.1668 33.3333 34.1668H6.66659C5.78253 34.1668 4.93468 33.8156 4.30956 33.1905C3.68444 32.5654 3.33325 31.7176 3.33325 30.8335V26.4168C3.33593 25.7521 3.53732 25.1033 3.91152 24.5539C4.28573 24.0044 4.81567 23.5795 5.43325 23.3335L19.9999 17.5002" stroke="#151515" stroke-width="2.5" stroke-linecap="round" stroke-linejoin="round"/>
</svg>
