<svg width="40" height="40" viewBox="0 0 40 40" fill="none" xmlns="http://www.w3.org/2000/svg">
<path d="M32.4498 34.9998H7.54975C7.04772 34.9982 6.55254 34.8833 6.10117 34.6635C5.64979 34.4437 5.25389 34.1248 4.94302 33.7306C4.63215 33.3364 4.41433 32.8771 4.30583 32.3869C4.19733 31.8968 4.20095 31.3884 4.31642 30.8998L8.33309 14.2332C8.50326 13.5126 8.90853 12.8691 9.48494 12.4044C10.0614 11.9396 10.7761 11.68 11.5164 11.6665H28.4831C29.2234 11.68 29.9381 11.9396 30.5146 12.4044C31.091 12.8691 31.4962 13.5126 31.6664 14.2332L35.6331 30.8998C35.7477 31.3843 35.7523 31.8884 35.6466 32.3749C35.5408 32.8614 35.3275 33.318 35.0221 33.7113C34.7168 34.1046 34.3273 34.4244 33.8821 34.6474C33.437 34.8704 32.9475 34.9908 32.4498 34.9998Z" stroke="#151515" stroke-width="2.5" stroke-linecap="round" stroke-linejoin="round"/>
<path d="M12.5996 11.6667L14.0996 8.63333C14.6556 7.54515 15.5 6.63072 16.5405 5.98995C17.581 5.34917 18.7776 5.00672 19.9996 5V5C21.2216 5.00672 22.4182 5.34917 23.4587 5.98995C24.4992 6.63072 25.3436 7.54515 25.8996 8.63333L27.3996 11.6667" stroke="#151515" stroke-width="2.5" stroke-linecap="round" stroke-linejoin="round"/>
</svg>
