<svg width="40" height="40" viewBox="0 0 40 40" fill="none" xmlns="http://www.w3.org/2000/svg">
<path fill-rule="evenodd" clip-rule="evenodd" d="M37.3669 21.6666C37.6595 21.1599 37.8135 20.5851 37.8135 20C37.8135 19.4148 37.6595 18.84 37.3669 18.3333C35.5974 15.2966 33.0626 12.777 30.0153 11.0258C26.9681 9.2746 23.5149 8.35303 20.0003 8.35303C16.4856 8.35303 13.0325 9.2746 9.98518 11.0258C6.93792 12.777 4.4031 15.2966 2.63359 18.3333C2.34103 18.84 2.18701 19.4148 2.18701 20C2.18701 20.5851 2.34103 21.1599 2.63359 21.6666C4.4031 24.7033 6.93792 27.2229 9.98518 28.9741C13.0325 30.7253 16.4856 31.6469 20.0003 31.6469C23.5149 31.6469 26.9681 30.7253 30.0153 28.9741C33.0626 27.2229 35.5974 24.7033 37.3669 21.6666V21.6666Z" stroke="#151515" stroke-width="2.5" stroke-linecap="round" stroke-linejoin="round"/>
<path d="M3.33325 20H36.6666" stroke="#151515" stroke-width="2.5" stroke-linecap="round" stroke-linejoin="round"/>
<path d="M11.6667 10.8335V29.1668" stroke="#151515" stroke-width="2.5" stroke-linecap="round" stroke-linejoin="round"/>
<path d="M28.3333 10.8335V29.1668" stroke="#151515" stroke-width="2.5" stroke-linecap="round" stroke-linejoin="round"/>
<path d="M23.3333 16.6665V23.3332" stroke="#151515" stroke-width="2.5" stroke-linecap="round" stroke-linejoin="round"/>
<path d="M16.6667 16.6665V23.3332" stroke="#151515" stroke-width="2.5" stroke-linecap="round" stroke-linejoin="round"/>
</svg>
