<svg width="40" height="40" viewBox="0 0 40 40" fill="none" xmlns="http://www.w3.org/2000/svg">
<path d="M11.6666 30.0002C13.5075 30.0002 14.9999 28.5078 14.9999 26.6668C14.9999 24.8259 13.5075 23.3335 11.6666 23.3335C9.82564 23.3335 8.33325 24.8259 8.33325 26.6668C8.33325 28.5078 9.82564 30.0002 11.6666 30.0002Z" stroke="#151515" stroke-width="2.5" stroke-linecap="round" stroke-linejoin="round"/>
<path d="M26.6665 15C29.4279 15 31.6665 12.7614 31.6665 10C31.6665 7.23858 29.4279 5 26.6665 5C23.9051 5 21.6665 7.23858 21.6665 10C21.6665 12.7614 23.9051 15 26.6665 15Z" stroke="#151515" stroke-width="2.5" stroke-linecap="round" stroke-linejoin="round"/>
<path d="M29.9999 36.6668C33.6818 36.6668 36.6666 33.6821 36.6666 30.0002C36.6666 26.3183 33.6818 23.3335 29.9999 23.3335C26.318 23.3335 23.3333 26.3183 23.3333 30.0002C23.3333 33.6821 26.318 36.6668 29.9999 36.6668Z" stroke="#151515" stroke-width="2.5" stroke-linecap="round" stroke-linejoin="round"/>
<path d="M6.66659 10.0002C8.50753 10.0002 9.99992 8.50778 9.99992 6.66683C9.99992 4.82588 8.50753 3.3335 6.66659 3.3335C4.82564 3.3335 3.33325 4.82588 3.33325 6.66683C3.33325 8.50778 4.82564 10.0002 6.66659 10.0002Z" stroke="#151515" stroke-width="2.5" stroke-linecap="round" stroke-linejoin="round"/>
<path d="M23.3333 30.0002L15 28.3335" stroke="#151515" stroke-width="2.5" stroke-linecap="round" stroke-linejoin="round"/>
<path d="M28.3333 15L30.4666 23.3667" stroke="#151515" stroke-width="2.5" stroke-linecap="round" stroke-linejoin="round"/>
<path d="M10 6.66699L21.6667 8.33366" stroke="#151515" stroke-width="2.5" stroke-linecap="round" stroke-linejoin="round"/>
<path d="M11.2335 23.3333C11.6668 23.3333 7.26685 10 7.26685 10" stroke="#151515" stroke-width="2.5" stroke-linecap="round" stroke-linejoin="round"/>
</svg>
