<svg width="40" height="40" viewBox="0 0 40 40" fill="none" xmlns="http://www.w3.org/2000/svg">
<path d="M31.3164 7.44982C30.1984 7.51371 29.0768 7.42399 27.9831 7.18315C26.6638 6.7314 25.4299 6.06094 24.3331 5.19982C23.3948 4.53463 22.5037 3.8051 21.6664 3.01649C21.3115 2.68491 20.8438 2.50049 20.3581 2.50049C19.8724 2.50049 19.4047 2.68491 19.0498 3.01649C18.2347 3.78017 17.3778 4.49794 16.4831 5.16648C15.3794 6.03893 14.141 6.72571 12.8164 7.19982C11.5707 7.4813 10.2909 7.58233 9.01644 7.49982C7.97286 7.4566 6.93242 7.35646 5.89977 7.19982C5.64743 7.16241 5.39014 7.1762 5.14324 7.24036C4.89634 7.30453 4.6649 7.41776 4.4627 7.57329C4.2605 7.72883 4.09169 7.92349 3.96635 8.14567C3.841 8.36785 3.76167 8.61299 3.7331 8.86649C3.64977 9.66648 3.4331 11.7498 3.3331 14.0665C3.19296 16.3811 3.3385 18.7041 3.76644 20.9832C4.97317 24.7589 7.1926 28.1313 10.1831 30.7331C12.5601 32.9753 15.1375 34.9948 17.8831 36.7665C18.6189 37.2717 19.4905 37.5421 20.3831 37.5421C21.2757 37.5421 22.1473 37.2717 22.8831 36.7665C25.4831 34.9486 27.915 32.9016 30.1498 30.6498C32.9652 28.0289 35.0502 24.7205 36.1998 21.0498" stroke="#151515" stroke-width="2.5" stroke-linecap="round" stroke-linejoin="round"/>
<path d="M18.3333 18.3333L23.0999 23.1C23.1296 23.1323 23.1656 23.1581 23.2058 23.1758C23.246 23.1935 23.2894 23.2026 23.3333 23.2026C23.3771 23.2026 23.4205 23.1935 23.4607 23.1758C23.5009 23.1581 23.5369 23.1323 23.5666 23.1L36.6666 10" stroke="#151515" stroke-width="2.5" stroke-linecap="round" stroke-linejoin="round"/>
</svg>
