<svg width="40" height="40" viewBox="0 0 40 40" fill="none" xmlns="http://www.w3.org/2000/svg">
<path d="M5 35.0002L6.31667 30.2002C8.5 22.3168 14.25 18.3335 20 18.3335" stroke="#151515" stroke-width="2.5" stroke-linecap="round" stroke-linejoin="round"/>
<path d="M20.0001 18.3C24.6025 18.3 28.3334 14.569 28.3334 9.96663C28.3334 5.36426 24.6025 1.6333 20.0001 1.6333C15.3977 1.6333 11.6667 5.36426 11.6667 9.96663C11.6667 14.569 15.3977 18.3 20.0001 18.3Z" stroke="#151515" stroke-width="2.5" stroke-linecap="round" stroke-linejoin="bevel"/>
<path d="M28.3333 38.3332C32.9357 38.3332 36.6667 34.6022 36.6667 29.9998C36.6667 25.3975 32.9357 21.6665 28.3333 21.6665C23.731 21.6665 20 25.3975 20 29.9998C20 34.6022 23.731 38.3332 28.3333 38.3332Z" stroke="#151515" stroke-width="2.5" stroke-linecap="round" stroke-linejoin="round"/>
<path d="M28.3334 30.3499C28.5267 30.3499 28.6834 30.1932 28.6834 29.9999C28.6834 29.8066 28.5267 29.6499 28.3334 29.6499C28.1401 29.6499 27.9834 29.8066 27.9834 29.9999C27.9834 30.1932 28.1401 30.3499 28.3334 30.3499Z" stroke="#151515" stroke-width="2.5" stroke-linecap="round" stroke-linejoin="round"/>
<path d="M23.9164 30.3499C24.1097 30.3499 24.2664 30.1932 24.2664 29.9999C24.2664 29.8066 24.1097 29.6499 23.9164 29.6499C23.7231 29.6499 23.5664 29.8066 23.5664 29.9999C23.5664 30.1932 23.7231 30.3499 23.9164 30.3499Z" stroke="#151515" stroke-width="2.5" stroke-linecap="round" stroke-linejoin="round"/>
<path d="M32.4665 30.3499C32.6598 30.3499 32.8165 30.1932 32.8165 29.9999C32.8165 29.8066 32.6598 29.6499 32.4665 29.6499C32.2732 29.6499 32.1165 29.8066 32.1165 29.9999C32.1165 30.1932 32.2732 30.3499 32.4665 30.3499Z" stroke="#151515" stroke-width="2.5" stroke-linecap="round" stroke-linejoin="round"/>
</svg>
