<svg width="40" height="40" viewBox="0 0 40 40" fill="none" xmlns="http://www.w3.org/2000/svg">
<path d="M5 35.0002L6.31667 30.2002C8.5 22.3168 14.25 18.3335 20 18.3335" stroke="#151515" stroke-width="2.5" stroke-linecap="round" stroke-linejoin="round"/>
<path d="M20.0001 18.3C24.6025 18.3 28.3334 14.569 28.3334 9.96663C28.3334 5.36426 24.6025 1.6333 20.0001 1.6333C15.3977 1.6333 11.6667 5.36426 11.6667 9.96663C11.6667 14.569 15.3977 18.3 20.0001 18.3Z" stroke="#151515" stroke-width="2.5" stroke-linecap="round" stroke-linejoin="bevel"/>
<path d="M28.3333 38.3332C32.9357 38.3332 36.6667 34.6022 36.6667 29.9998C36.6667 25.3975 32.9357 21.6665 28.3333 21.6665C23.731 21.6665 20 25.3975 20 29.9998C20 34.6022 23.731 38.3332 28.3333 38.3332Z" stroke="#151515" stroke-width="2.5" stroke-linecap="round" stroke-linejoin="round"/>
<path d="M25 30H31.6667" stroke="#151515" stroke-width="2.5" stroke-linecap="round" stroke-linejoin="round"/>
<path d="M28.3333 26.6665V33.3332" stroke="#151515" stroke-width="2.5" stroke-linecap="round" stroke-linejoin="round"/>
</svg>
