<svg width="40" height="40" viewBox="0 0 40 40" fill="none" xmlns="http://www.w3.org/2000/svg">
<path d="M31.217 17.7002H31.667H32.117C35.0003 17.3835 36.667 13.6668 35.267 10.7668L32.117 4.28351C32.0815 4.19304 32.0196 4.11536 31.9393 4.06061C31.8591 4.00585 31.7642 3.97656 31.667 3.97656C31.5698 3.97656 31.4749 4.00585 31.3946 4.06061C31.3144 4.11536 31.2524 4.19304 31.217 4.28351L28.067 10.7668C26.667 13.6668 28.3337 17.3835 31.217 17.7002Z" stroke="#151515" stroke-width="2.5" stroke-linecap="round" stroke-linejoin="bevel"/>
<path d="M7.88373 17.7002H8.33373H8.78373C11.6671 17.3835 13.3337 13.6668 11.9337 10.7668L8.78373 4.28351C8.74827 4.19304 8.68637 4.11536 8.60609 4.06061C8.52582 4.00585 8.4309 3.97656 8.33373 3.97656C8.23656 3.97656 8.14165 4.00585 8.06137 4.06061C7.9811 4.11536 7.91919 4.19304 7.88373 4.28351L4.73373 10.7668C3.33373 13.6668 5.0004 17.3835 7.88373 17.7002Z" stroke="#151515" stroke-width="2.5" stroke-linecap="round" stroke-linejoin="bevel"/>
<path d="M18.9875 36.6571H19.5875H20.2042C24.2208 36.2237 26.4042 31.1571 24.4875 27.2071L20.2208 18.4071C20.1673 18.286 20.0797 18.183 19.9688 18.1107C19.8578 18.0385 19.7283 18 19.5958 18C19.4634 18 19.3339 18.0385 19.2229 18.1107C19.112 18.183 19.0244 18.286 18.9708 18.4071L14.7042 27.2071C12.7875 31.1571 14.9708 36.2237 18.9875 36.6571Z" stroke="#151515" stroke-width="2.5" stroke-linecap="round" stroke-linejoin="bevel"/>
</svg>
