<svg width="40" height="40" viewBox="0 0 40 40" fill="none" xmlns="http://www.w3.org/2000/svg">
<path fill-rule="evenodd" clip-rule="evenodd" d="M29.0499 13.6001C28.1654 11.9803 26.8545 10.6332 25.2593 9.70488C23.6641 8.77655 21.8453 8.3023 19.9999 8.33348C18.1545 8.3023 16.3357 8.77655 14.7405 9.70488C13.1453 10.6332 11.8345 11.9803 10.9499 13.6001C8.85775 13.9969 6.96321 15.0947 5.57862 16.7126C4.19404 18.3304 3.40206 20.3718 3.33325 22.5001C3.45008 25.0396 4.56762 27.4294 6.44154 29.1472C8.31546 30.8649 10.7933 31.7708 13.3333 31.6668C14.6195 31.6651 15.8951 31.4337 17.0999 30.9835C18.0007 31.4325 18.9934 31.6663 19.9999 31.6663C21.0064 31.6663 21.9992 31.4325 22.8999 30.9835C24.1048 31.4337 25.3804 31.6651 26.6666 31.6668C29.2066 31.7708 31.6844 30.8649 33.5583 29.1472C35.4322 27.4294 36.5498 25.0396 36.6666 22.5001C36.5978 20.3718 35.8058 18.3304 34.4212 16.7126C33.0366 15.0947 31.1421 13.9969 29.0499 13.6001V13.6001Z" stroke="#151515" stroke-width="2.5" stroke-linecap="round" stroke-linejoin="round"/>
</svg>
