<svg width="40" height="40" viewBox="0 0 40 40" fill="none" xmlns="http://www.w3.org/2000/svg">
<path d="M21.6666 13.3332C23.5075 13.3332 24.9999 11.8408 24.9999 9.99984C24.9999 8.15889 23.5075 6.6665 21.6666 6.6665C19.8256 6.6665 18.3333 8.15889 18.3333 9.99984C18.3333 11.8408 19.8256 13.3332 21.6666 13.3332Z" stroke="#151515" stroke-width="2.5" stroke-linecap="round" stroke-linejoin="round"/>
<path d="M33.3333 19.9997C35.1743 19.9997 36.6667 18.5073 36.6667 16.6663C36.6667 14.8254 35.1743 13.333 33.3333 13.333C31.4924 13.333 30 14.8254 30 16.6663C30 18.5073 31.4924 19.9997 33.3333 19.9997Z" stroke="#151515" stroke-width="2.5" stroke-linecap="round" stroke-linejoin="round"/>
<path d="M26.6666 33.3332C28.5075 33.3332 29.9999 31.8408 29.9999 29.9998C29.9999 28.1589 28.5075 26.6665 26.6666 26.6665C24.8256 26.6665 23.3333 28.1589 23.3333 29.9998C23.3333 31.8408 24.8256 33.3332 26.6666 33.3332Z" stroke="#151515" stroke-width="2.5" stroke-linecap="round" stroke-linejoin="round"/>
<path d="M26.6666 26.6665H8.33325" stroke="#151515" stroke-width="2.5" stroke-linecap="round" stroke-linejoin="round"/>
<path d="M33.3332 20H3.33325" stroke="#151515" stroke-width="2.5" stroke-linecap="round" stroke-linejoin="round"/>
<path d="M21.6667 13.333H5" stroke="#151515" stroke-width="2.5" stroke-linecap="round" stroke-linejoin="round"/>
</svg>
